<svg version="1.0" xmlns="http://www.w3.org/2000/svg"
 width="512.000000pt" height="512.000000pt" viewBox="0 0 512.000000 512.000000"
 preserveAspectRatio="xMidYMid meet">

<g transform="translate(0.000000,512.000000) scale(0.100000,-0.100000)"
fill="#000000" stroke="none">
<path d="M1440 4569 c-136 -18 -318 -82 -450 -159 -494 -289 -861 -909 -966
-1635 -25 -169 -25 -536 -1 -695 99 -646 430 -1143 922 -1385 72 -35 169 -75
216 -90 343 -102 720 -80 1031 62 l78 36 60 -27 c515 -231 1118 -161 1656 192
194 128 419 334 573 527 268 334 460 752 532 1160 33 183 33 482 1 631 -96
446 -357 762 -751 911 -419 158 -961 104 -1500 -148 -57 -27 -105 -48 -106
-47 -91 144 -330 377 -491 480 -240 154 -533 222 -804 187z m305 -204 c218
-38 417 -144 603 -319 75 -72 212 -230 212 -247 0 -3 -30 -26 -67 -51 -182
-121 -414 -332 -552 -501 -194 -240 -401 -641 -401 -779 0 -53 43 -98 94 -98
55 0 89 39 121 140 158 494 600 972 1150 1245 680 338 1373 300 1738 -94 75
-82 109 -132 162 -243 245 -511 81 -1289 -398 -1892 -396 -497 -927 -786
-1446 -786 -268 0 -502 70 -726 218 -99 65 -279 249 -349 355 -32 48 -76 129
-98 180 -21 50 -46 107 -54 125 -19 45 -72 67 -120 52 -79 -26 -83 -90 -16
-245 83 -193 230 -393 384 -523 43 -37 74 -70 70 -73 -13 -12 -165 -56 -242
-70 -108 -20 -354 -17 -460 5 -541 112 -938 527 -1089 1141 -42 170 -55 292
-55 510 -1 301 33 512 126 794 130 393 367 745 638 948 238 178 517 253 775
208z"/>
<path d="M1509 2092 c-28 -25 -34 -37 -34 -72 0 -35 6 -47 34 -72 29 -26 39
-30 75 -25 54 7 86 44 86 97 0 53 -32 90 -86 97 -36 5 -46 1 -75 -25z"/>
</g>
</svg>
