<svg version="1.0" xmlns="http://www.w3.org/2000/svg"
 width="512.000000pt" height="512.000000pt" viewBox="0 0 512.000000 512.000000"
 preserveAspectRatio="xMidYMid meet">

<g transform="translate(0.000000,512.000000) scale(0.100000,-0.100000)"
fill="#000000" stroke="none">
<path d="M2030 4519 c-223 -27 -712 -151 -757 -192 -29 -26 -29 -51 2 -212 28
-148 29 -155 14 -155 -23 0 -238 -111 -338 -175 -155 -98 -260 -184 -412 -335
-206 -204 -384 -441 -485 -645 -80 -160 -73 -271 28 -450 145 -259 395 -560
612 -738 76 -62 108 -70 143 -37 51 47 39 80 -62 167 -214 184 -449 472 -575
706 -73 136 -66 205 41 379 179 293 411 551 664 738 353 261 771 400 1208 400
535 0 1039 -200 1362 -542 103 -109 170 -206 242 -353 96 -196 181 -269 313
-269 37 0 87 7 118 18 29 10 154 85 280 168 255 169 298 193 334 179 121 -46
231 -411 200 -663 -23 -190 -95 -385 -163 -442 -57 -48 -71 -43 -352 143 -208
137 -268 172 -321 186 -84 23 -158 16 -227 -21 -70 -39 -112 -91 -171 -214
-124 -260 -281 -439 -527 -604 -333 -223 -810 -341 -1238 -307 -280 22 -529
89 -757 202 -66 32 -128 59 -138 59 -54 0 -88 -52 -67 -102 10 -24 38 -42 153
-99 78 -38 195 -86 260 -108 l119 -39 44 -86 c74 -150 165 -261 277 -341 109
-77 271 -145 345 -145 49 0 101 30 123 71 22 41 22 69 2 134 -31 102 -64 241
-64 273 0 30 2 32 36 32 64 0 245 30 368 61 356 89 688 275 911 511 128 134
210 255 292 428 61 130 118 173 207 156 20 -4 136 -73 272 -162 281 -185 301
-196 365 -202 122 -12 220 59 294 212 150 309 149 708 -2 1011 -72 144 -156
209 -268 209 -76 -1 -88 -7 -382 -199 -269 -177 -308 -194 -372 -160 -44 22
-77 68 -130 179 -27 55 -69 133 -94 171 l-46 70 148 150 c82 83 154 160 160
173 7 12 9 33 6 45 -9 29 -137 160 -250 255 -119 100 -321 232 -355 232 -56 0
-93 -86 -52 -123 9 -8 64 -46 122 -84 107 -71 257 -192 320 -257 l34 -36 -117
-117 -117 -117 -40 39 c-22 21 -40 43 -40 49 0 5 21 37 47 70 55 70 63 116 24
147 -50 40 -92 18 -168 -86 l-21 -30 -71 49 c-39 27 -71 51 -71 52 0 2 18 31
40 65 22 34 40 68 40 75 0 50 -58 92 -104 75 -12 -5 -42 -39 -65 -75 l-43 -65
-63 31 -63 32 24 64 c29 78 30 92 3 126 -15 18 -30 26 -53 26 -43 0 -69 -30
-92 -103 -13 -43 -22 -56 -33 -52 -8 3 -42 14 -74 23 -49 14 -58 20 -54 37 2
11 10 48 18 82 13 61 12 63 -11 88 -32 34 -81 34 -109 -1 -11 -14 -25 -50 -32
-80 -7 -30 -16 -57 -21 -60 -6 -4 -158 15 -158 20 0 0 4 27 10 59 11 67 1 99
-37 116 -34 15 -47 14 -76 -9 -15 -12 -27 -34 -31 -57 -18 -103 -7 -93 -101
-93 l-84 0 -7 62 c-11 101 -73 140 -131 82 -24 -24 -25 -30 -20 -85 8 -67 13
-63 -104 -74 l-66 -6 -6 46 c-6 56 -32 86 -75 87 -52 2 -71 -24 -74 -99 l-3
-65 -80 -23 c-44 -13 -83 -21 -86 -17 -8 9 -43 191 -38 196 10 9 379 102 494
124 116 23 156 25 370 26 306 1 479 -23 710 -100 116 -38 141 -41 173 -18 28
20 31 83 4 107 -38 35 -277 104 -477 138 -137 24 -524 35 -655 18z m-85 -3420
c83 -7 152 -13 153 -15 2 -1 12 -45 22 -97 10 -52 28 -126 39 -164 12 -39 21
-73 21 -76 0 -9 -75 19 -144 54 -117 59 -223 160 -296 283 l-23 39 39 -6 c21
-3 107 -11 189 -18z"/>
<path d="M1399 3541 c-48 -48 -32 -94 44 -133 223 -113 387 -312 464 -565 24
-79 26 -104 26 -238 0 -122 -4 -165 -21 -230 -63 -231 -219 -438 -413 -546
-112 -62 -135 -104 -84 -154 34 -35 69 -31 149 15 149 87 282 216 368 357 l50
81 87 -65 c140 -108 256 -149 348 -124 62 17 133 69 175 130 120 172 152 564
73 877 -43 171 -100 260 -197 308 -118 59 -256 18 -431 -127 -32 -27 -60 -47
-61 -45 -1 1 -15 26 -31 53 -63 111 -184 244 -292 321 -70 50 -187 114 -209
114 -9 0 -29 -13 -45 -29z m1011 -426 c116 -60 184 -489 124 -784 -20 -97 -53
-168 -98 -211 -73 -69 -153 -42 -342 117 l-51 42 15 68 c9 37 17 70 18 72 4 4
96 -26 167 -56 51 -21 61 -22 85 -11 15 7 33 26 40 41 29 60 -32 109 -200 158
-77 22 -78 23 -78 55 0 31 3 33 58 49 31 9 90 30 131 47 59 25 76 37 86 61 16
39 3 79 -30 97 -27 15 -25 15 -174 -40 -46 -17 -84 -29 -85 -28 -1 2 -9 32
-18 68 -19 77 -22 72 92 163 122 98 197 124 260 92z"/>
<path d="M894 3095 c-81 -41 -84 -159 -4 -200 60 -31 127 -8 156 54 15 31 15
40 3 75 -24 68 -95 101 -155 71z"/>
<path d="M4570 2924 c-30 -20 -99 -58 -153 -85 -112 -57 -130 -80 -103 -136
18 -38 52 -50 97 -34 55 19 239 122 275 153 42 37 45 77 9 113 -33 34 -60 31
-125 -11z"/>
<path d="M4350 2577 c-13 -7 -31 -25 -40 -40 -25 -46 -1 -73 122 -138 59 -31
125 -68 148 -82 49 -33 89 -35 118 -4 57 60 15 111 -164 203 -142 74 -152 77
-184 61z"/>
</g>
</svg>
