<svg version="1.0" xmlns="http://www.w3.org/2000/svg"
 width="512.000000pt" height="512.000000pt" viewBox="0 0 512.000000 512.000000"
 preserveAspectRatio="xMidYMid meet">

<g transform="translate(0.000000,512.000000) scale(0.100000,-0.100000)"
fill="#000000" stroke="none">
<path d="M1546 5105 c-49 -17 -103 -68 -127 -120 -16 -34 -19 -66 -19 -209 l0
-168 -310 -388 -310 -388 0 -1833 0 -1834 30 -52 c21 -36 44 -61 77 -80 l48
-28 1626 0 1626 0 48 30 c36 22 57 45 77 84 l28 53 0 1284 c0 1271 0 1284 -20
1304 -30 30 -83 27 -109 -6 -21 -27 -21 -27 -21 -1289 0 -1228 -1 -1263 -19
-1286 l-19 -24 -521 -3 -521 -3 0 1816 0 1815 261 328 c144 180 265 331 269
335 4 5 130 -144 279 -329 l271 -338 0 -382 c0 -371 1 -382 21 -408 27 -34 77
-36 107 -3 22 23 22 26 22 436 l0 413 -310 388 -310 388 0 168 c0 142 -3 175
-19 209 -23 51 -89 111 -138 124 -21 6 -130 11 -244 11 -202 0 -206 0 -227
-23 -29 -31 -29 -77 1 -105 22 -21 32 -22 224 -22 267 0 253 10 253 -181 l0
-139 -1010 0 -1010 0 0 135 c0 131 1 137 25 160 l24 25 621 0 621 0 24 25 c14
13 25 36 25 50 0 14 -11 37 -25 50 l-24 25 -628 0 c-508 -1 -635 -4 -667 -15z
m1932 -613 c-1 -5 -111 -144 -243 -310 l-240 -301 -993 0 -992 -1 247 310 248
310 988 0 c544 0 987 -4 985 -8z m-528 -1152 l0 -389 -441 -3 -441 -3 -19 -24
c-28 -35 -25 -85 7 -110 26 -21 37 -21 460 -21 l434 0 0 -822 0 -823 -72 0
c-81 0 -151 -27 -222 -83 -71 -58 -125 -54 -218 16 -121 91 -257 94 -367 10
-104 -80 -144 -86 -217 -33 -156 111 -287 122 -403 33 -116 -89 -163 -89 -266
-1 -50 42 -130 67 -201 61 l-54 -5 0 824 0 823 428 0 c323 0 433 3 452 13 30
15 45 54 36 91 -13 54 -34 56 -496 56 l-420 0 0 390 0 390 1010 0 1010 0 0
-390z m-1826 -2399 c72 -56 131 -75 215 -69 70 5 113 22 174 71 86 67 141 67
231 -2 122 -93 269 -94 386 -1 85 67 155 70 224 10 54 -48 133 -80 196 -80 74
0 120 14 177 55 26 19 67 44 91 56 39 19 47 19 85 7 l42 -13 3 -412 2 -413
-984 0 c-980 0 -983 0 -1010 21 l-26 20 0 395 0 394 28 6 c15 3 32 7 37 8 26
7 81 -16 129 -53z"/>
<path d="M2173 4399 c-155 -76 -190 -285 -67 -387 68 -57 139 -66 220 -28 116
54 176 202 125 311 -50 108 -176 155 -278 104z m128 -150 c49 -49 -23 -156
-85 -128 -32 15 -40 50 -22 93 24 57 70 72 107 35z"/>
<path d="M1901 2473 c-23 -9 -149 -211 -215 -345 -74 -148 -93 -226 -76 -303
36 -158 169 -269 325 -268 237 1 391 217 315 443 -38 116 -230 448 -270 470
-20 11 -56 12 -79 3z m107 -320 c121 -212 138 -293 75 -371 -75 -94 -202 -98
-281 -8 -57 65 -56 130 2 253 45 95 125 233 135 233 4 0 35 -48 69 -107z"/>
<path d="M3285 2305 c-35 -34 -34 -86 1 -114 26 -20 38 -21 360 -21 l333 0 27
23 c37 33 37 81 0 114 l-27 23 -335 0 -335 0 -24 -25z"/>
<path d="M3285 1996 c-35 -35 -34 -87 1 -115 26 -20 38 -21 360 -21 l333 0 27
23 c35 30 37 79 5 110 -21 22 -27 22 -361 25 l-340 3 -25 -25z"/>
<path d="M3303 1700 c-49 -20 -59 -96 -17 -129 26 -20 38 -21 360 -21 l333 0
27 23 c35 30 37 79 5 110 -21 22 -26 22 -354 24 -182 1 -342 -2 -354 -7z"/>
<path d="M3303 1390 c-47 -19 -58 -92 -20 -128 23 -22 28 -22 363 -22 l341 0
23 25 c30 32 31 79 1 108 -21 22 -26 22 -354 24 -182 1 -342 -2 -354 -7z"/>
<path d="M3315 1079 c-16 -5 -36 -16 -42 -26 -21 -28 -16 -77 10 -101 23 -22
28 -22 363 -22 262 1 343 4 356 14 26 20 39 62 28 91 -19 51 -52 55 -382 54
-167 0 -316 -5 -333 -10z"/>
<path d="M3280 750 c-28 -28 -26 -81 3 -108 23 -22 28 -22 361 -22 201 0 345
4 356 10 29 16 42 67 25 100 -8 15 -22 30 -30 34 -9 3 -169 6 -356 6 -326 0
-340 -1 -359 -20z"/>
</g>
</svg>
