<svg version="1.0" xmlns="http://www.w3.org/2000/svg"
 width="512.000000pt" height="512.000000pt" viewBox="0 0 512.000000 512.000000"
 preserveAspectRatio="xMidYMid meet">

<g transform="translate(0.000000,512.000000) scale(0.100000,-0.100000)"
fill="#000000" stroke="none">
<path d="M510 4913 c-63 -23 -175 -137 -222 -228 -20 -39 -49 -111 -64 -160
-26 -85 -28 -101 -28 -280 -1 -208 10 -270 73 -422 186 -453 666 -597 1056
-318 86 61 148 135 195 230 59 119 73 187 68 325 -6 142 -45 268 -120 390
-131 212 -386 396 -637 459 -104 26 -253 27 -321 4z"/>
<path d="M3153 4921 c-62 -16 -141 -62 -181 -105 -48 -52 -71 -97 -142 -274
-58 -146 -89 -199 -138 -235 -19 -15 -105 -45 -219 -78 -146 -41 -199 -61
-244 -91 -157 -105 -212 -322 -127 -505 27 -60 172 -205 251 -252 143 -84 261
-115 437 -115 166 0 222 14 385 94 281 138 476 374 550 665 34 132 36 301 6
420 -49 189 -180 381 -304 444 -60 31 -78 35 -155 37 -48 2 -101 -1 -119 -5z
m206 -161 c81 -42 173 -171 217 -307 26 -78 29 -102 29 -208 -1 -93 -6 -138
-23 -198 -72 -255 -259 -468 -502 -573 -112 -49 -182 -64 -291 -64 -191 0
-340 61 -475 195 -88 88 -104 121 -104 216 0 59 27 128 63 167 35 38 85 59
244 102 180 49 257 86 321 154 48 51 57 69 173 350 46 113 97 165 184 187 43
11 122 1 164 -21z"/>
<path d="M3305 4560 c-54 -21 -63 -75 -21 -136 14 -21 36 -70 48 -108 18 -61
20 -84 15 -198 -6 -119 -5 -130 13 -148 25 -25 81 -26 103 -2 36 40 48 237 22
351 -9 35 -29 92 -45 125 -49 101 -88 135 -135 116z"/>
<path d="M4115 3629 c-87 -13 -189 -46 -270 -86 -258 -130 -421 -330 -523
-643 -39 -117 -47 -155 -71 -323 -11 -72 -27 -149 -36 -170 -22 -53 -76 -110
-180 -188 -329 -247 -555 -649 -572 -1020 -12 -254 77 -471 272 -664 145 -144
340 -257 540 -312 89 -24 117 -27 255 -28 173 0 230 11 357 70 195 90 344 235
471 458 99 173 162 370 183 568 12 110 10 124 -26 359 -27 178 4 283 131 435
122 146 178 241 232 395 44 127 56 208 49 356 -10 238 -89 424 -251 593 -153
159 -357 232 -561 200z m124 -163 c-17 -37 -3 -74 35 -93 31 -14 37 -14 65 0
31 15 31 15 46 -12 26 -51 91 -57 125 -13 l22 27 55 -60 c269 -295 266 -743
-9 -1080 -97 -119 -134 -173 -168 -248 -55 -122 -61 -215 -29 -461 35 -268 10
-410 -116 -667 -154 -315 -379 -487 -683 -523 -51 -7 -53 -6 -43 13 17 30 13
50 -14 76 -37 38 -69 32 -128 -24 l-52 -49 -58 18 c-33 10 -103 40 -158 66
l-99 47 0 59 c0 88 -20 118 -77 118 -23 0 -38 -8 -56 -31 l-24 -30 -72 77
c-226 242 -252 594 -70 957 102 202 224 345 419 488 170 126 218 211 246 438
18 151 44 258 89 367 64 155 165 299 274 390 76 64 221 138 301 153 30 6 64
13 75 15 11 2 41 4 67 5 47 1 47 1 37 -23z"/>
<path d="M4017 3248 c-72 -85 -167 -230 -167 -255 0 -29 42 -73 69 -73 37 0
51 12 108 94 31 44 76 105 100 134 48 60 55 100 23 132 -12 12 -33 20 -54 20
-29 0 -41 -8 -79 -52z"/>
<path d="M4461 3158 c-36 -13 -50 -38 -51 -90 0 -26 -7 -100 -15 -165 -15
-112 -15 -118 3 -143 28 -37 83 -40 110 -6 32 42 64 313 42 365 -14 35 -54 52
-89 39z"/>
<path d="M3746 2799 c-37 -22 -151 -310 -140 -355 13 -53 85 -71 121 -31 11
12 26 40 33 62 7 22 32 89 57 149 38 95 43 113 33 136 -11 26 -47 50 -73 50
-7 0 -20 -5 -31 -11z"/>
<path d="M4327 2578 c-8 -7 -34 -56 -57 -108 -23 -52 -55 -118 -71 -146 -35
-62 -37 -93 -6 -122 33 -31 80 -29 107 6 37 45 133 254 138 298 3 33 0 46 -17
63 -23 23 -69 28 -94 9z"/>
<path d="M3550 2230 c-11 -11 -20 -25 -20 -31 0 -6 -28 -43 -63 -83 -125 -140
-134 -161 -96 -210 15 -19 30 -26 53 -26 29 0 43 12 131 112 128 147 144 187
97 241 -21 24 -77 22 -102 -3z"/>
<path d="M4083 2060 c-34 -14 -40 -35 -53 -195 -7 -82 -14 -153 -16 -157 -8
-13 16 -57 39 -73 31 -20 73 -11 93 20 15 22 28 115 38 268 6 88 6 89 -23 118
-31 31 -42 33 -78 19z"/>
<path d="M3210 1760 c-21 -21 -124 -220 -145 -280 -16 -47 -3 -84 37 -101 53
-22 73 -1 155 161 79 157 88 198 51 224 -31 22 -74 20 -98 -4z"/>
<path d="M3987 1468 c-25 -20 -127 -337 -117 -364 23 -60 97 -66 131 -11 27
45 99 272 99 312 0 61 -67 98 -113 63z"/>
<path d="M2987 1222 c-8 -9 -20 -30 -26 -45 -19 -48 -61 -295 -54 -314 12 -35
36 -53 70 -53 45 0 70 28 78 87 4 26 18 97 31 158 29 135 29 136 1 163 -28 27
-78 29 -100 4z"/>
<path d="M3774 922 c-7 -4 -37 -49 -68 -100 -31 -52 -72 -117 -91 -145 -38
-57 -40 -65 -24 -101 15 -32 57 -50 91 -37 36 14 208 281 208 324 0 30 -41 67
-73 67 -18 0 -37 -4 -43 -8z"/>
<path d="M1489 3407 c-115 -33 -195 -109 -266 -254 -106 -218 -109 -491 -8
-720 66 -149 228 -337 378 -441 99 -69 239 -135 347 -164 111 -30 329 -33 430
-5 208 57 410 215 486 380 71 156 39 333 -80 453 -76 75 -133 98 -351 139
-104 20 -203 44 -220 52 -57 29 -96 78 -172 213 -132 234 -171 279 -288 331
-61 27 -188 35 -256 16z m218 -162 c59 -30 70 -41 116 -118 l35 -58 -33 -55
c-54 -90 -67 -179 -39 -275 66 -227 319 -348 517 -247 39 20 127 100 144 131
8 16 14 17 77 3 115 -24 180 -84 213 -195 13 -46 14 -65 5 -110 -23 -110 -173
-269 -274 -290 -118 -26 -315 -9 -448 37 -261 91 -505 318 -608 564 -70 168
-80 404 -23 517 58 112 199 155 318 96z"/>
<path d="M354 2148 c-22 -10 -44 -47 -44 -72 0 -33 38 -59 121 -83 193 -55
298 -127 344 -236 l14 -35 -83 -40 c-114 -55 -242 -142 -357 -245 -124 -110
-159 -153 -159 -193 0 -35 16 -52 76 -82 l41 -21 6 -103 c7 -119 43 -273 86
-364 123 -263 353 -417 701 -469 149 -23 213 -20 268 12 279 160 438 347 488
572 24 107 15 268 -21 381 -33 105 -102 239 -170 334 l-52 72 29 55 c17 34 28
70 28 96 0 38 -4 44 -32 59 -68 35 -456 29 -643 -10 l-61 -13 -28 61 c-37 77
-148 189 -232 233 -60 32 -213 86 -269 96 -16 3 -40 0 -51 -5z m1209 -752 c52
-78 112 -201 136 -281 79 -254 -6 -477 -257 -677 -40 -32 -92 -69 -115 -82
-41 -25 -45 -25 -142 -15 -456 46 -688 268 -729 699 l-6 65 49 -3 c43 -3 131
13 183 33 13 5 20 0 28 -21 50 -135 144 -239 273 -303 45 -22 103 -44 129 -47
42 -6 49 -4 71 20 39 42 105 183 127 270 23 92 25 159 7 236 l-13 56 56 17
c31 9 79 32 106 51 27 19 52 35 55 35 3 1 22 -23 42 -53z"/>
</g>
</svg>
