<svg version="1.0" xmlns="http://www.w3.org/2000/svg"
 width="512.000000pt" height="512.000000pt" viewBox="0 0 512.000000 512.000000"
 preserveAspectRatio="xMidYMid meet">

<g transform="translate(0.000000,512.000000) scale(0.100000,-0.100000)"
fill="#000000" stroke="none">
<path d="M3633 5105 c-63 -17 -118 -44 -181 -89 -105 -75 -205 -111 -446 -162
-570 -120 -903 -315 -1132 -663 -109 -167 -170 -315 -234 -569 -45 -176 -73
-233 -152 -313 -50 -49 -86 -71 -260 -157 -292 -144 -455 -257 -622 -432 -201
-212 -311 -451 -335 -726 -22 -245 30 -456 153 -629 241 -336 821 -475 1316
-313 145 47 279 137 415 279 228 239 390 532 495 894 40 139 70 194 145 271
78 79 122 104 285 159 258 89 479 222 658 398 98 96 198 214 212 251 18 47
-15 96 -65 96 -38 0 -51 -9 -110 -85 -142 -179 -342 -340 -540 -435 -44 -21
-141 -59 -215 -85 -163 -56 -255 -111 -341 -203 -81 -85 -137 -192 -179 -340
-125 -445 -425 -873 -713 -1018 -258 -130 -697 -128 -972 6 -206 99 -337 263
-381 475 -23 110 -15 328 16 440 55 204 183 398 365 557 146 128 286 213 586
357 120 58 207 129 270 222 56 83 75 133 119 304 83 329 204 555 394 732 200
186 460 301 856 379 234 45 354 90 499 186 41 26 99 56 129 64 139 41 294 -36
353 -174 62 -145 99 -340 99 -528 0 -194 -28 -334 -106 -537 -35 -91 -35 -117
0 -147 23 -19 72 -17 95 4 38 35 117 271 146 441 18 107 21 348 5 455 -27 177
-88 366 -148 458 -97 149 -302 224 -479 177z"/>
<path d="M3314 4524 c-49 -31 -126 -82 -172 -115 l-83 -59 -95 47 c-91 45 -97
46 -122 32 -15 -8 -33 -27 -42 -42 -13 -24 -13 -30 0 -54 9 -16 37 -39 62 -53
26 -14 50 -28 53 -32 3 -3 -40 -45 -96 -94 l-101 -88 -32 19 c-90 53 -200 105
-225 105 -57 0 -95 -86 -53 -123 9 -8 55 -35 101 -59 46 -24 83 -47 83 -52 -1
-4 -47 -55 -102 -113 l-102 -106 -64 31 c-35 18 -78 32 -94 32 -40 0 -70 -31
-70 -73 0 -38 23 -63 83 -90 44 -20 48 -11 -54 -137 -41 -52 -106 -138 -144
-190 -90 -127 -115 -152 -285 -288 -80 -64 -175 -142 -212 -175 l-67 -58 -60
31 c-73 36 -104 38 -136 5 -44 -43 -29 -92 36 -125 l40 -21 -41 -47 c-23 -26
-67 -77 -98 -114 l-57 -66 -35 15 c-19 9 -51 18 -71 20 -30 4 -40 0 -58 -22
-37 -47 -24 -93 34 -123 l35 -17 -27 -40 c-73 -106 -143 -232 -143 -255 0 -37
34 -70 73 -70 18 0 37 4 43 8 7 4 38 50 71 102 33 52 72 114 87 137 l28 43 46
-33 c64 -45 249 -224 305 -296 l47 -59 -37 -30 c-21 -16 -84 -59 -139 -95
-107 -69 -123 -91 -104 -141 10 -28 38 -46 71 -46 24 0 113 53 223 132 l68 50
29 -31 c37 -41 88 -43 118 -5 26 33 26 50 1 97 l-21 39 102 106 c57 59 105
108 109 110 3 1 13 -11 23 -28 28 -47 46 -60 82 -60 41 0 75 32 75 69 0 14
-18 54 -40 88 l-39 62 68 103 c38 57 103 167 145 246 114 215 187 299 386 447
58 43 110 82 116 86 6 5 22 -8 42 -36 27 -39 36 -45 67 -45 73 0 96 67 49 141
-14 22 -24 44 -22 48 7 18 224 208 232 204 4 -3 32 -43 62 -90 30 -46 66 -89
80 -95 51 -24 115 28 101 83 -3 13 -36 68 -72 122 -36 53 -65 101 -65 105 1 4
12 21 26 37 14 17 52 63 85 103 l58 73 26 -41 c31 -49 65 -67 103 -54 33 12
57 53 49 85 -4 13 -24 51 -46 84 l-40 60 20 30 c72 110 179 340 179 384 0 34
-38 71 -74 71 -47 0 -61 -16 -96 -105 -26 -66 -116 -245 -123 -245 -1 0 -66
63 -144 140 l-141 139 131 88 c165 109 177 119 177 155 0 36 -40 78 -73 78
-13 0 -64 -25 -113 -56z m-25 -571 c41 -46 79 -90 84 -99 10 -18 -4 -40 -101
-158 l-63 -76 -71 80 c-65 74 -188 189 -262 248 l-30 23 25 24 c13 13 62 55
108 94 l85 69 74 -61 c41 -34 109 -99 151 -144z m-468 -158 c78 -66 279 -271
279 -286 0 -4 -50 -55 -112 -114 l-112 -106 -25 33 c-32 44 -245 256 -296 296
l-40 31 105 105 c57 58 109 106 113 106 5 0 44 -29 88 -65z m-316 -335 c74
-62 177 -168 234 -241 l20 -26 -127 -94 c-220 -163 -311 -269 -433 -500 -38
-71 -92 -166 -121 -211 l-52 -81 -24 29 c-111 133 -300 314 -368 352 -16 9
-16 12 -4 28 8 9 83 71 165 138 238 190 249 202 384 381 134 179 228 295 238
295 3 0 43 -31 88 -70z m-936 -912 c75 -57 258 -235 316 -309 l46 -59 -108
-111 -108 -111 -35 49 c-48 66 -231 249 -310 308 -36 27 -67 50 -69 51 -11 9
183 224 202 224 5 0 35 -19 66 -42z"/>
<path d="M3515 2401 c-89 -22 -172 -90 -208 -169 -11 -26 -22 -77 -25 -114 -9
-125 26 -381 74 -545 l6 -23 -133 0 c-86 0 -157 6 -199 16 -36 9 -102 18 -147
21 -72 4 -88 2 -136 -20 -62 -28 -117 -80 -149 -140 -21 -39 -23 -54 -22 -202
1 -243 42 -439 134 -632 52 -110 72 -129 126 -118 66 12 70 59 15 176 -72 153
-113 331 -127 547 -8 126 2 168 47 206 46 39 89 42 198 16 83 -21 118 -24 266
-22 94 1 175 -2 181 -6 5 -4 27 -37 48 -74 94 -170 273 -349 433 -433 48 -24
54 -32 69 -79 25 -83 29 -202 9 -271 -55 -190 -206 -331 -397 -371 -161 -34
-295 8 -471 148 -57 44 -88 48 -122 13 -54 -53 -22 -108 119 -202 133 -89 273
-129 417 -120 233 15 449 157 550 362 57 117 72 189 66 315 -2 58 -7 112 -11
120 -5 13 8 15 82 16 210 2 419 116 536 293 189 284 132 622 -166 992 -79 99
-152 158 -253 204 -106 49 -159 58 -369 60 -159 2 -204 6 -266 24 -77 21 -123
24 -175 12z m210 -175 c47 -10 127 -15 241 -16 198 0 260 -13 360 -78 102 -66
225 -226 304 -394 51 -110 70 -184 70 -280 0 -266 -230 -489 -505 -488 -132 1
-226 38 -359 142 -242 188 -390 534 -397 928 -3 120 10 157 64 191 37 23 100
21 222 -5z"/>
</g>
</svg>
