<svg version="1.0" xmlns="http://www.w3.org/2000/svg"
 width="512.000000pt" height="512.000000pt" viewBox="0 0 512.000000 512.000000"
 preserveAspectRatio="xMidYMid meet">

<g transform="translate(0.000000,512.000000) scale(0.100000,-0.100000)"
fill="#000000" stroke="none">
<path d="M343 5099 c-69 -13 -129 -44 -182 -94 -66 -62 -98 -118 -123 -218
-40 -158 -12 -327 77 -462 88 -134 289 -295 366 -295 51 0 84 17 135 72 149
156 229 329 228 493 -1 332 -226 559 -501 504z m145 -151 c130 -33 235 -245
202 -410 -20 -104 -81 -218 -172 -322 l-33 -38 -61 46 c-91 68 -178 166 -216
243 -31 65 -33 73 -33 178 1 92 5 118 24 161 29 67 77 112 143 135 63 22 84
23 146 7z"/>
<path d="M3490 4936 c-107 -31 -247 -126 -310 -210 -92 -123 -129 -245 -137
-446 -4 -127 -3 -138 19 -179 40 -77 71 -86 278 -86 163 1 181 3 256 28 104
35 184 87 260 171 75 81 129 186 145 282 11 61 10 81 -4 140 -32 127 -110 225
-225 281 -46 23 -71 28 -146 30 -53 1 -110 -3 -136 -11z m192 -146 c52 -15
133 -91 153 -145 41 -105 1 -235 -104 -344 -66 -69 -132 -104 -238 -126 -71
-15 -217 -20 -273 -8 l-33 6 7 106 c12 200 54 311 152 400 54 49 129 95 184
112 37 11 110 10 152 -1z"/>
<path d="M1916 4750 c-370 -123 -559 -325 -606 -647 -24 -165 26 -318 139
-426 147 -140 351 -173 531 -86 84 41 211 167 267 264 69 120 85 175 91 308 5
133 -7 231 -45 352 -53 169 -84 225 -143 255 -56 28 -99 24 -234 -20z m189
-162 c13 -29 36 -93 51 -143 24 -79 28 -107 28 -230 1 -160 -9 -195 -90 -317
-145 -218 -368 -267 -538 -118 -62 55 -89 120 -94 227 -10 221 106 412 318
523 70 36 263 108 293 110 4 0 19 -24 32 -52z"/>
<path d="M4555 4551 c-44 -27 -185 -177 -234 -250 -101 -148 -136 -264 -128
-426 14 -292 159 -485 397 -527 77 -13 180 2 257 37 62 28 145 102 185 165 67
104 104 320 79 453 -22 118 -84 240 -183 356 -55 65 -180 175 -225 199 -34 18
-114 15 -148 -7z m199 -233 c182 -182 237 -321 207 -518 -31 -195 -139 -303
-306 -303 -85 0 -128 17 -190 74 -87 80 -130 207 -123 364 3 79 8 100 40 168
20 42 50 96 67 120 43 63 171 197 187 197 8 0 61 -46 118 -102z"/>
<path d="M570 3554 c-79 -17 -207 -77 -279 -132 -144 -109 -244 -309 -281
-564 -27 -183 25 -233 293 -279 102 -17 306 -7 387 19 182 59 362 232 413 397
26 83 29 137 13 214 -37 177 -171 313 -344 350 -68 14 -121 13 -202 -5z m227
-160 c52 -21 128 -99 153 -156 29 -68 25 -171 -9 -243 -30 -62 -148 -180 -217
-217 -128 -69 -355 -76 -541 -17 -32 10 -33 12 -27 52 45 301 138 457 329 548
117 57 226 68 312 33z"/>
<path d="M3035 3459 c-303 -44 -496 -243 -495 -513 0 -45 5 -100 10 -123 26
-111 117 -237 219 -302 165 -106 449 -141 629 -78 92 32 112 49 112 97 0 75
-42 84 -185 40 -118 -36 -303 -17 -430 45 -76 37 -140 97 -172 163 -25 51 -28
68 -28 157 0 84 4 107 23 146 74 149 221 222 447 223 136 0 213 -24 338 -107
84 -56 258 -226 280 -274 10 -22 5 -30 -67 -102 -86 -86 -99 -123 -58 -163 47
-47 118 -11 222 114 57 68 64 89 58 158 -4 39 -14 61 -49 107 -72 93 -205 219
-298 281 -185 124 -344 161 -556 131z"/>
<path d="M1530 2926 c-139 -40 -252 -131 -315 -256 -65 -127 -98 -329 -77
-464 27 -177 128 -352 301 -526 117 -117 155 -140 229 -140 61 0 97 23 205
128 210 206 317 419 317 632 0 385 -213 642 -529 639 -47 0 -106 -6 -131 -13z
m288 -170 c106 -54 179 -164 207 -312 48 -246 -22 -431 -247 -656 -53 -54
-105 -98 -116 -98 -23 0 -178 151 -238 233 -102 137 -139 243 -138 387 2 227
89 392 240 456 51 21 71 24 149 21 74 -3 99 -8 143 -31z"/>
<path d="M4350 2500 c-262 -48 -437 -275 -417 -538 12 -147 92 -338 190 -447
126 -142 350 -249 613 -291 97 -16 105 -16 149 0 60 23 92 67 120 166 66 226
73 473 18 631 -71 204 -256 399 -435 458 -74 24 -174 33 -238 21z m142 -151
c153 -32 318 -189 387 -369 23 -59 25 -79 25 -220 0 -136 -3 -168 -27 -264
-15 -60 -32 -115 -38 -122 -12 -15 -46 -11 -184 21 -189 45 -349 130 -427 229
-51 64 -112 190 -134 276 -21 84 -14 182 19 253 51 111 181 198 309 206 9 1
41 -4 70 -10z"/>
<path d="M2895 1906 c-16 -7 -38 -22 -48 -34 -26 -29 -92 -187 -118 -279 -30
-109 -37 -296 -15 -383 42 -164 178 -349 305 -414 141 -73 320 -61 458 31 138
92 208 261 183 443 -11 80 -43 188 -75 251 -79 156 -263 293 -495 369 -100 33
-148 37 -195 16z m188 -177 c287 -104 438 -297 425 -547 -3 -62 -10 -98 -25
-127 -65 -123 -219 -184 -353 -140 -101 33 -226 182 -264 314 -35 120 -9 317
63 474 35 78 19 75 154 26z"/>
<path d="M647 1449 c-91 -21 -132 -70 -105 -126 18 -39 56 -50 110 -32 64 21
174 18 229 -8 82 -37 144 -120 169 -225 5 -24 10 -82 10 -129 0 -185 -76 -318
-278 -484 -36 -30 -71 -55 -78 -55 -16 0 -106 100 -156 173 -56 83 -96 175
-110 255 -12 69 -1 160 34 279 22 78 -31 132 -99 99 -27 -13 -35 -26 -53 -82
-11 -37 -25 -99 -31 -138 -31 -200 48 -414 233 -625 118 -136 177 -150 297
-70 139 93 278 247 336 374 46 99 57 155 56 277 0 221 -79 382 -232 471 -86
50 -229 70 -332 46z"/>
<path d="M1860 1145 c-157 -44 -272 -183 -287 -346 -12 -123 41 -250 155 -371
61 -65 89 -86 156 -117 118 -56 168 -66 346 -66 180 0 217 12 258 81 22 37 23
46 18 174 -7 219 -56 359 -163 471 -141 148 -331 216 -483 174z m165 -150 c68
-18 110 -41 181 -101 92 -77 138 -197 150 -391 l7 -101 -76 -7 c-195 -18 -359
34 -458 144 -72 81 -103 150 -104 232 0 56 4 73 30 114 44 72 119 119 195 124
9 1 42 -6 75 -14z"/>
<path d="M4243 840 c-184 -48 -313 -160 -412 -357 -78 -157 -90 -246 -40 -299
75 -80 338 -174 483 -174 188 1 412 133 488 288 31 63 33 73 33 172 0 93 -3
112 -27 162 -31 68 -94 138 -153 172 -96 57 -240 71 -372 36z m241 -144 c66
-20 110 -57 140 -118 55 -110 23 -230 -83 -314 -155 -121 -328 -130 -553 -27
-43 20 -78 42 -78 49 0 7 25 62 55 122 62 123 139 214 215 250 104 49 218 64
304 38z"/>
</g>
</svg>
