<svg version="1.0" xmlns="http://www.w3.org/2000/svg"
 width="512.000000pt" height="512.000000pt" viewBox="0 0 512.000000 512.000000"
 preserveAspectRatio="xMidYMid meet">

<g transform="translate(0.000000,512.000000) scale(0.100000,-0.100000)"
fill="#000000" stroke="none">
<path d="M4345 5096 c-53 -24 -99 -71 -120 -120 -10 -24 -31 -37 -101 -69
-134 -59 -155 -66 -202 -67 -112 -1 -312 -64 -442 -140 -304 -178 -522 -499
-585 -862 -12 -70 -16 -143 -13 -303 l3 -210 -32 -67 c-45 -96 -100 -145 -239
-212 -155 -75 -250 -142 -364 -256 -114 -114 -179 -206 -257 -364 -69 -141
-116 -194 -211 -239 l-67 -32 -215 3 c-182 3 -230 0 -315 -16 -535 -105 -929
-508 -984 -1006 -8 -71 -19 -112 -40 -154 -38 -77 -81 -197 -81 -229 0 -32 59
-91 172 -170 53 -37 91 -74 125 -121 322 -452 973 -592 1508 -325 227 114 415
299 532 525 55 107 118 175 200 214 56 27 66 28 268 35 220 7 281 16 418 65
400 144 711 496 804 909 10 43 18 149 22 275 7 197 8 207 35 263 39 82 107
145 214 200 526 272 786 908 603 1478 -75 232 -230 446 -410 567 -43 28 -75
60 -100 99 -21 32 -54 78 -75 102 -33 40 -35 46 -23 65 14 20 34 30 89 41 34
7 61 54 52 90 -14 58 -85 71 -169 31z m-36 -363 c23 -31 51 -73 63 -94 14 -25
45 -54 87 -81 336 -215 500 -680 391 -1106 -80 -315 -274 -556 -570 -708 -143
-73 -260 -218 -290 -360 -5 -27 -12 -130 -14 -229 -3 -153 -7 -194 -29 -276
-48 -183 -134 -334 -268 -474 -235 -244 -478 -345 -838 -345 -80 0 -166 -5
-191 -11 -140 -32 -282 -148 -354 -289 -121 -235 -286 -397 -513 -501 -471
-218 -1040 -78 -1300 320 -31 48 -59 75 -115 111 -125 83 -124 81 -110 129 7
22 29 71 49 108 31 59 37 81 44 163 10 125 31 205 85 319 53 114 118 203 216
297 132 127 295 219 483 270 96 27 109 28 355 29 274 1 274 1 391 60 30 15 83
57 119 94 53 54 77 91 132 201 78 156 135 236 246 341 100 96 170 144 318 216
174 85 258 173 322 337 13 33 16 90 17 296 1 246 2 259 29 355 55 201 158 377
299 512 96 91 166 140 280 193 104 49 186 70 308 79 78 6 105 13 141 34 53 31
136 66 159 66 9 1 35 -24 58 -56z"/>
<path d="M3898 4540 c-344 -58 -623 -342 -704 -715 -22 -103 -23 -294 -1 -391
55 -250 205 -452 415 -558 179 -90 438 -88 623 4 314 157 509 484 509 850 0
232 -77 439 -222 596 -151 164 -402 250 -620 214z m293 -179 c137 -52 250
-157 318 -295 61 -124 75 -190 75 -341 -1 -112 -5 -143 -28 -220 -52 -172
-138 -303 -264 -404 -307 -246 -714 -159 -886 190 -63 127 -79 210 -73 369 3
107 9 139 36 220 45 134 99 220 200 320 87 86 158 132 256 165 108 37 262 35
366 -4z"/>
<path d="M2930 2841 c-337 -72 -626 -346 -722 -686 -33 -118 -33 -329 0 -435
151 -483 688 -663 1157 -388 65 38 118 81 190 153 118 118 182 218 231 364
105 305 45 599 -165 806 -175 173 -428 241 -691 186z m297 -146 c167 -32 321
-144 390 -286 197 -402 -89 -930 -561 -1034 -104 -23 -254 -17 -346 14 -312
107 -455 444 -333 786 96 266 333 469 608 520 95 18 149 18 242 0z"/>
<path d="M1300 1859 c-192 -24 -405 -119 -528 -236 -48 -46 -56 -89 -22 -123
35 -35 79 -26 147 29 86 68 153 105 263 142 81 27 113 33 220 36 159 6 242
-10 369 -73 251 -124 376 -375 315 -634 -28 -120 -78 -205 -184 -310 -102
-103 -177 -150 -311 -195 -390 -133 -802 49 -904 398 -29 100 -21 242 21 350
31 80 6 137 -59 137 -43 0 -63 -22 -93 -104 -71 -195 -49 -426 57 -602 108
-178 310 -313 538 -359 124 -25 325 -17 444 19 170 51 281 113 400 226 120
112 208 260 242 402 19 81 19 245 -1 328 -70 300 -347 528 -689 569 -100 12
-131 12 -225 0z"/>
</g>
</svg>
