<svg version="1.0" xmlns="http://www.w3.org/2000/svg"
 width="512.000000pt" height="512.000000pt" viewBox="0 0 512.000000 512.000000"
 preserveAspectRatio="xMidYMid meet">
<g transform="translate(0.000000,512.000000) scale(0.100000,-0.100000)"
fill="#000000" stroke="none">
<path d="M1573 5110 c-37 -15 -176 -159 -221 -230 -89 -137 -136 -312 -130
-479 l3 -97 -80 28 c-107 36 -211 51 -319 45 -94 -5 -128 -20 -154 -68 -22
-41 -10 -297 18 -384 23 -71 73 -176 109 -230 28 -41 27 -45 -14 -45 -51 0
-94 -26 -111 -65 -21 -52 -19 -243 5 -336 25 -100 64 -193 106 -256 19 -29 35
-54 35 -57 0 -2 -18 -6 -40 -10 -108 -17 -124 -48 -117 -235 6 -181 40 -295
128 -432 16 -25 29 -49 29 -52 0 -4 -17 -7 -37 -7 -52 0 -85 -19 -106 -60 -15
-29 -17 -56 -15 -167 3 -115 6 -135 24 -160 26 -34 83 -51 118 -35 47 21 60
56 57 148 l-2 84 58 -6 c243 -25 438 -160 534 -369 29 -65 59 -191 59 -250 l0
-36 -88 7 c-83 6 -89 5 -116 -17 -18 -16 -29 -37 -33 -65 -4 -35 -1 -46 23
-73 23 -25 41 -33 89 -41 33 -6 77 -10 98 -10 l37 0 0 -544 0 -545 23 -26 c14
-17 36 -28 63 -32 36 -5 46 -1 75 25 l34 30 3 545 2 544 75 7 c160 15 315 72
443 163 l64 46 67 -27 c63 -25 173 -50 274 -62 42 -5 47 -8 42 -27 -38 -175
-94 -1092 -71 -1180 8 -32 59 -67 98 -67 16 0 41 12 60 29 l33 29 7 250 c3
138 11 317 17 399 12 156 49 510 56 530 2 7 35 -5 89 -32 137 -69 226 -89 386
-89 110 0 149 4 214 22 85 24 192 74 260 121 142 98 269 263 250 324 -19 60
-132 160 -259 228 -78 43 -78 43 -54 58 53 34 175 160 219 228 54 81 106 200
115 259 9 59 -18 94 -103 134 l-70 34 79 74 c43 40 94 95 113 120 71 98 146
281 146 358 0 49 -22 77 -83 104 -28 14 -54 25 -56 27 -2 1 25 28 59 59 123
114 212 260 250 410 27 105 26 166 -2 198 -30 34 -109 63 -221 82 -51 9 -93
17 -93 17 -1 1 18 36 42 76 83 142 120 299 111 470 -9 174 -60 318 -121 348
-31 14 -40 14 -112 -2 -268 -59 -496 -244 -599 -485 -10 -25 -22 -49 -26 -53
-3 -5 -23 12 -44 37 -42 51 -159 143 -222 175 -23 12 -59 21 -79 21 -31 0 -44
-7 -77 -42 -57 -63 -94 -119 -137 -211 -59 -129 -75 -201 -75 -358 l0 -135
-50 19 c-92 35 -142 3 -202 -128 l-28 -62 -45 5 c-25 3 -46 6 -48 7 -2 2 15
31 37 65 87 134 139 333 127 488 -7 90 -24 135 -57 153 -12 6 -65 13 -118 16
-110 6 -240 -14 -333 -51 l-57 -23 1 116 c1 225 -73 416 -220 573 -112 119
-157 143 -219 118z m171 -393 c20 -40 43 -99 51 -132 20 -78 19 -240 -1 -319
-20 -78 -83 -198 -135 -256 l-40 -45 -49 54 c-197 217 -199 576 -4 816 l48 58
47 -52 c26 -29 63 -85 83 -124z m2323 -113 c18 -78 15 -202 -6 -286 -48 -188
-165 -331 -339 -418 -34 -17 -75 -33 -91 -36 -27 -6 -29 -4 -39 42 -19 88 -22
143 -11 221 34 248 204 450 439 526 27 9 35 1 47 -49z m-883 -335 c84 -78 132
-152 170 -259 27 -76 30 -98 30 -205 1 -109 -2 -128 -30 -205 -32 -90 -77
-170 -95 -170 -6 0 -46 35 -89 78 -175 176 -233 421 -153 652 30 86 75 170 93
170 5 0 38 -27 74 -61z m-2179 -104 c182 -38 352 -170 434 -335 42 -86 71
-192 71 -264 l0 -39 -78 5 c-296 21 -551 276 -570 571 l-5 77 39 0 c22 0 71
-7 109 -15z m1375 -12 c-1 -76 -32 -193 -71 -273 -33 -67 -59 -102 -123 -165
-47 -46 -106 -93 -141 -112 -78 -41 -195 -73 -267 -73 l-58 0 6 58 c14 139 59
253 140 354 109 137 299 234 467 237 45 1 47 0 47 -26z m1807 -394 l64 -11 -6
-32 c-4 -17 -25 -69 -48 -116 -120 -246 -400 -387 -675 -339 l-64 11 6 32 c3
17 25 69 48 116 32 65 59 102 117 160 152 151 351 215 558 179z m-1387 -180
c120 -78 207 -189 258 -331 22 -63 26 -90 26 -193 1 -98 -3 -133 -21 -190 -34
-106 -33 -105 -100 -70 -81 42 -189 153 -236 242 -71 137 -95 301 -62 439 19
83 45 144 60 144 6 0 40 -18 75 -41z m-1766 -146 c177 -44 340 -180 417 -348
29 -65 59 -191 59 -251 l0 -37 -70 7 c-39 4 -94 14 -123 23 -213 63 -388 244
-442 458 -15 57 -20 156 -10 167 8 8 104 -2 169 -19z m1335 18 c10 -7 12 -23
6 -72 -34 -301 -251 -526 -550 -570 -101 -15 -105 -13 -99 58 14 155 75 284
189 398 110 110 220 165 367 184 34 5 65 9 68 10 3 0 11 -3 19 -8z m1602 -407
c39 -9 73 -22 76 -30 3 -7 -12 -49 -33 -91 -29 -59 -58 -98 -119 -158 -128
-129 -271 -188 -450 -188 -78 0 -196 21 -212 37 -10 9 26 92 68 157 93 144
261 254 429 282 60 10 177 6 241 -9z m-1297 -286 c97 -96 156 -203 182 -328
19 -88 14 -216 -11 -300 -21 -69 -26 -74 -61 -58 -94 40 -208 133 -265 216
l-30 42 25 64 c45 111 60 192 60 324 1 67 5 122 9 122 4 0 45 -37 91 -82z
m-1650 -48 c181 -46 335 -169 415 -331 41 -84 71 -191 71 -261 l0 -38 -53 0
c-117 0 -289 71 -389 160 -117 104 -197 265 -206 413 l-5 77 45 0 c25 0 79 -9
122 -20z m1356 -7 c-1 -76 -32 -193 -71 -273 -99 -201 -326 -349 -537 -350
l-52 0 6 58 c25 244 156 432 370 534 70 33 166 56 237 57 45 1 47 0 47 -26z
m1425 -347 c85 -27 85 -26 46 -103 -98 -192 -333 -333 -556 -333 -67 0 -172
20 -228 44 l-38 15 25 48 c84 167 241 292 424 338 73 19 257 14 327 -9z
m-1433 -419 c-12 -295 -281 -565 -577 -579 l-70 -3 3 55 c4 87 21 149 64 240
33 69 56 100 122 165 109 109 221 166 361 185 103 14 100 15 97 -63z m249
-180 c25 -66 33 -101 37 -179 l5 -98 -39 0 c-38 0 -169 31 -181 44 -3 3 -1 11
5 19 24 29 81 156 97 217 24 93 24 92 34 85 5 -3 24 -42 42 -88z m1013 -81
c70 -24 216 -106 216 -122 0 -17 -47 -68 -103 -110 -152 -115 -338 -157 -522
-119 -74 15 -210 78 -260 120 l-30 25 50 51 c165 170 422 231 649 155z"/>
<path d="M924 1559 c-27 -14 -54 -60 -54 -94 0 -36 59 -95 95 -95 126 0 145
182 20 195 -22 3 -49 0 -61 -6z"/>
</g>
</svg>
