<svg id="svg" version="1.1" xmlns="http://www.w3.org/2000/svg" xmlns:xlink="http://www.w3.org/1999/xlink" width="400" height="400" viewBox="0, 0, 400,400"><g id="svgg"><path id="path0" d="M0.000 200.000 L 0.000 400.000 200.000 400.000 L 400.000 400.000 400.000 200.000 L 400.000 0.000 200.000 0.000 L 0.000 0.000 0.000 200.000 M157.200 105.361 C 165.842 106.932,177.409 113.864,182.824 120.718 C 184.944 123.402,184.664 123.691,181.941 121.626 C 178.146 118.747,170.760 115.458,165.109 114.130 C 155.236 111.810,143.031 115.300,138.089 121.856 C 136.514 123.945,133.612 129.528,133.605 130.481 C 133.602 130.856,133.440 131.576,133.245 132.081 C 131.809 135.798,131.434 146.315,132.562 151.200 C 133.672 156.000,133.889 156.694,135.027 159.052 C 137.520 164.222,144.670 173.600,146.119 173.600 C 146.851 173.600,145.847 155.124,145.006 153.100 C 144.831 152.680,144.891 152.400,145.157 152.400 C 145.401 152.400,145.600 152.672,145.600 153.005 C 145.600 153.338,145.775 153.923,145.989 154.305 C 146.464 155.156,147.746 159.815,148.325 162.800 C 150.059 171.737,150.394 174.333,150.668 180.954 C 150.984 188.621,150.727 188.195,154.646 187.559 C 159.027 186.847,180.085 186.818,183.600 187.518 C 185.030 187.803,187.190 188.232,188.400 188.471 C 197.482 190.266,208.891 194.838,216.247 199.631 C 219.960 202.050,219.073 202.043,214.107 199.613 C 211.738 198.454,209.440 197.371,209.000 197.206 C 208.560 197.042,207.750 196.715,207.200 196.480 C 205.988 195.962,201.995 194.666,199.800 194.079 C 198.270 193.669,196.409 193.237,192.700 192.430 C 182.669 190.248,166.079 190.606,152.739 193.292 L 150.478 193.748 150.028 196.174 C 149.781 197.508,149.396 199.394,149.174 200.364 C 148.656 202.619,148.892 202.796,151.800 202.334 C 165.144 200.212,175.800 200.449,189.200 203.165 C 190.764 203.482,192.210 203.853,198.600 205.579 C 200.721 206.152,206.123 208.055,207.989 208.886 C 208.985 209.330,210.430 209.958,211.200 210.281 C 213.352 211.185,218.154 213.628,218.580 214.036 C 219.263 214.690,218.121 214.437,212.903 212.776 C 210.096 211.883,207.125 210.983,206.300 210.776 C 205.475 210.569,204.125 210.231,203.300 210.025 C 186.986 205.950,169.966 205.799,151.200 209.565 C 150.210 209.763,148.410 210.117,147.200 210.351 C 145.990 210.585,143.740 211.052,142.200 211.388 C 140.660 211.725,139.336 212.000,139.256 212.000 C 139.046 212.000,139.454 209.648,139.985 207.800 C 140.238 206.920,140.625 205.570,140.845 204.800 C 141.065 204.030,141.405 202.860,141.600 202.200 C 142.727 198.388,143.794 194.229,144.369 191.400 C 144.637 190.080,145.024 188.349,145.228 187.554 C 145.433 186.758,145.600 185.101,145.600 183.871 L 145.600 181.634 142.900 179.473 C 127.088 166.815,120.790 149.812,124.725 130.400 C 126.731 120.504,133.295 111.840,141.800 107.860 C 144.480 106.606,147.366 105.598,148.353 105.572 C 148.929 105.556,149.760 105.389,150.200 105.200 C 151.384 104.691,153.823 104.747,157.200 105.361 M253.200 115.926 C 261.374 117.209,269.196 121.264,273.470 126.434 C 274.091 127.185,274.909 128.144,275.289 128.564 C 278.388 131.997,281.395 141.672,281.826 149.598 C 282.950 170.275,274.189 183.727,253.800 192.635 C 251.528 193.627,245.967 195.065,242.100 195.660 C 239.766 196.019,238.754 196.348,238.642 196.784 C 238.554 197.123,238.272 198.570,238.015 200.000 C 237.757 201.430,237.387 203.320,237.193 204.200 C 236.998 205.080,236.622 206.790,236.356 208.000 C 236.091 209.210,235.542 211.502,235.137 213.093 C 234.732 214.684,234.400 216.349,234.400 216.793 C 234.400 217.237,234.196 217.600,233.946 217.600 C 233.630 217.600,233.578 217.019,233.776 215.700 C 237.030 193.975,235.033 176.796,229.063 175.153 C 227.173 174.633,209.751 174.953,205.000 175.595 C 201.245 176.103,187.769 176.102,185.120 175.593 C 183.954 175.370,182.010 174.995,180.800 174.762 C 174.326 173.512,163.076 168.282,159.702 164.953 C 159.428 164.683,158.726 164.085,158.141 163.625 C 156.482 162.320,157.293 162.242,159.452 163.499 C 163.198 165.681,168.472 168.022,171.500 168.846 C 172.215 169.041,173.475 169.385,174.300 169.612 C 179.898 171.148,189.744 171.588,196.235 170.591 C 224.139 166.306,233.054 166.551,236.854 171.709 C 239.723 175.603,240.180 177.231,240.111 183.300 C 240.077 186.325,240.160 188.800,240.296 188.800 C 240.432 188.800,241.096 188.625,241.772 188.412 C 242.447 188.199,244.260 187.651,245.800 187.196 C 262.407 182.281,272.060 170.178,272.113 154.200 C 272.168 137.946,265.626 128.744,252.080 126.025 C 246.919 124.989,236.585 125.711,229.400 127.610 C 222.952 129.314,223.329 129.192,219.300 130.854 C 218.695 131.103,217.840 131.453,217.400 131.631 C 216.960 131.809,214.530 132.932,212.000 134.126 C 209.470 135.321,206.500 136.701,205.400 137.194 C 204.300 137.688,202.680 138.415,201.800 138.810 C 191.604 143.391,180.872 146.400,174.727 146.400 C 166.372 146.400,158.188 140.734,153.639 131.800 C 150.970 126.557,151.394 125.787,155.075 129.200 C 165.655 139.012,174.415 140.482,187.400 134.626 C 188.500 134.130,190.207 133.381,191.192 132.962 C 192.178 132.543,197.697 129.825,203.456 126.922 C 209.215 124.019,215.338 121.159,217.063 120.566 C 226.123 117.451,228.031 116.868,230.600 116.425 C 232.140 116.159,234.120 115.793,235.000 115.611 C 237.083 115.179,249.850 115.400,253.200 115.926 M327.291 231.100 C 327.383 237.096,327.493 238.200,328.000 238.200 C 328.507 238.200,328.617 237.092,328.709 231.070 C 328.863 221.045,329.717 221.285,330.000 231.433 C 330.268 241.048,330.965 240.965,331.109 231.300 C 331.197 225.438,331.326 224.000,331.766 224.000 C 332.675 224.000,332.800 224.975,332.800 232.033 C 332.800 236.173,332.952 238.800,333.191 238.800 C 333.427 238.800,333.625 235.913,333.691 231.500 C 333.854 220.592,335.057 221.793,335.252 233.059 L 335.357 239.118 334.179 240.604 C 331.658 243.782,331.791 243.150,331.913 251.382 C 331.975 255.572,332.208 260.867,332.431 263.148 C 332.876 267.698,332.519 268.800,330.600 268.800 C 328.325 268.800,328.307 268.516,329.436 250.568 C 329.782 245.068,329.508 243.547,327.835 241.676 C 325.325 238.869,325.296 238.669,326.063 229.521 C 326.693 221.991,327.160 222.590,327.291 231.100 M348.859 225.188 C 353.002 228.603,352.505 238.123,347.970 242.227 C 347.042 243.067,346.910 250.259,347.625 261.003 C 348.049 267.374,348.048 267.394,347.158 268.115 C 344.467 270.294,343.709 268.439,344.157 260.771 C 344.355 257.377,344.536 252.080,344.558 249.000 L 344.600 243.400 343.164 241.400 C 338.784 235.299,338.768 227.400,343.132 224.870 C 345.249 223.642,347.109 223.746,348.859 225.188 M82.396 230.998 C 84.869 232.277,85.664 235.629,83.930 237.474 C 82.126 239.395,79.833 238.220,80.963 235.953 C 82.547 232.778,80.105 230.841,76.946 232.767 C 71.549 236.058,69.569 248.094,74.270 249.034 C 76.336 249.447,78.166 247.428,79.647 243.100 C 80.145 241.646,80.220 241.600,82.080 241.600 C 84.259 241.600,84.333 241.774,83.575 245.123 C 83.342 246.155,82.990 247.720,82.793 248.600 C 80.565 258.565,79.526 260.805,76.393 262.404 C 71.334 264.985,65.756 260.197,68.659 255.765 C 70.440 253.047,74.618 252.880,75.293 255.500 C 75.571 256.579,74.992 257.012,73.480 256.853 C 71.294 256.624,70.120 259.794,72.015 260.808 C 73.879 261.806,75.551 260.039,76.376 256.200 C 76.660 254.880,77.069 253.203,77.286 252.473 C 77.791 250.772,77.497 250.511,76.112 251.431 C 69.502 255.828,63.521 245.946,67.609 237.380 C 70.282 231.781,77.709 228.574,82.396 230.998 M238.067 231.152 C 242.247 232.965,243.084 236.877,240.028 240.323 L 238.855 241.645 239.861 243.123 C 240.918 244.674,240.922 245.003,239.941 248.800 C 239.685 249.790,239.444 251.831,239.405 253.335 C 239.328 256.332,239.007 256.792,237.000 256.781 C 233.814 256.764,233.571 255.407,235.409 247.885 C 236.020 245.384,236.021 245.092,235.427 244.185 C 233.977 241.973,232.873 243.022,231.992 247.447 C 231.734 248.741,231.357 250.520,231.153 251.400 C 230.950 252.280,230.673 253.675,230.539 254.500 L 230.295 256.000 227.747 256.000 C 226.346 256.000,225.208 255.865,225.217 255.700 C 225.227 255.535,225.407 254.590,225.618 253.600 C 225.829 252.610,226.181 250.900,226.400 249.800 C 226.619 248.700,226.959 247.080,227.156 246.200 C 227.353 245.320,227.913 242.710,228.401 240.400 C 228.889 238.090,229.378 235.804,229.487 235.319 C 229.645 234.620,230.139 234.345,231.886 233.982 C 234.625 233.414,234.923 233.680,234.393 236.222 C 233.215 241.878,233.505 242.589,235.981 240.113 C 239.960 236.134,237.803 231.456,232.450 232.454 C 228.123 233.260,225.936 235.670,225.601 240.000 C 225.286 244.073,222.215 243.315,222.278 239.179 C 222.364 233.482,232.067 228.549,238.067 231.152 M175.777 232.889 C 177.672 235.594,174.544 238.541,171.982 236.466 C 170.981 235.656,170.790 233.576,171.623 232.572 C 172.396 231.641,175.045 231.843,175.777 232.889 M276.320 232.480 C 277.834 233.994,276.334 237.200,274.111 237.200 C 272.055 237.200,270.958 234.695,272.223 232.889 C 272.922 231.890,275.475 231.635,276.320 232.480 M167.060 235.300 C 166.923 236.235,166.704 237.380,166.573 237.845 C 166.395 238.477,166.545 238.745,167.168 238.907 C 168.359 239.219,168.195 240.151,166.860 240.655 C 165.959 240.995,165.667 241.410,165.464 242.642 C 165.323 243.499,164.999 245.190,164.743 246.400 C 163.931 250.246,164.049 252.578,165.062 252.723 C 166.145 252.877,167.790 250.783,168.144 248.800 C 168.281 248.030,168.576 246.590,168.799 245.600 C 169.022 244.610,169.356 242.952,169.540 241.916 C 169.991 239.381,170.555 238.799,172.549 238.806 C 175.051 238.815,175.407 239.188,174.902 241.262 C 174.669 242.218,174.272 243.990,174.019 245.200 C 173.767 246.410,173.374 248.139,173.145 249.041 C 172.579 251.274,172.812 252.573,173.803 252.715 C 175.299 252.930,176.070 251.884,176.640 248.866 C 178.487 239.102,187.772 234.508,190.052 242.230 C 190.813 244.806,193.600 244.333,193.600 241.627 C 193.600 239.143,196.836 237.768,198.984 239.339 C 199.606 239.793,199.906 239.786,200.896 239.292 C 202.293 238.595,204.560 238.859,205.650 239.845 C 206.480 240.596,206.745 245.409,206.029 246.746 C 205.201 248.293,205.046 252.366,205.803 252.657 C 206.692 252.998,207.758 252.347,207.935 251.357 C 208.009 250.941,208.588 249.944,209.221 249.141 C 210.432 247.605,212.281 243.765,213.191 240.894 C 213.878 238.728,214.114 238.557,216.900 238.221 L 219.200 237.942 219.200 239.271 C 219.199 242.049,220.186 250.800,220.500 250.800 C 220.680 250.800,221.255 250.520,221.777 250.178 C 223.487 249.058,223.367 250.340,221.611 251.944 C 217.170 256.005,212.512 257.274,209.617 255.212 C 208.519 254.430,208.338 254.405,207.781 254.962 C 206.992 255.751,204.309 256.480,203.343 256.168 C 200.198 255.151,199.660 253.783,200.653 249.328 C 201.733 244.474,201.653 242.629,200.356 242.479 C 199.166 242.341,198.261 243.803,197.632 246.877 C 197.438 247.825,197.061 249.590,196.795 250.800 C 196.529 252.010,196.194 253.630,196.051 254.400 L 195.789 255.800 193.295 255.919 C 190.533 256.051,190.594 256.131,191.218 253.200 C 191.429 252.210,191.776 250.500,191.988 249.400 C 192.200 248.300,192.494 246.981,192.642 246.468 C 192.883 245.630,192.795 245.550,191.769 245.668 C 190.585 245.805,190.557 245.854,189.202 250.200 C 187.608 255.314,181.856 257.816,178.164 255.000 C 176.555 253.772,176.647 253.771,174.975 255.046 C 172.972 256.574,169.865 256.589,168.564 255.077 L 167.637 253.999 166.163 254.999 C 163.759 256.631,159.200 256.325,159.200 254.532 C 159.200 253.811,159.062 253.846,157.362 255.000 C 155.122 256.520,152.244 256.486,150.943 254.923 L 150.085 253.894 148.743 254.895 C 144.681 257.921,140.805 255.805,140.801 250.560 C 140.797 243.286,146.126 237.371,151.118 239.111 C 151.879 239.377,152.500 239.376,152.978 239.108 C 153.674 238.719,157.015 238.882,157.460 239.326 C 157.581 239.447,157.502 240.143,157.286 240.873 C 157.069 241.603,156.679 243.280,156.418 244.600 C 156.157 245.920,155.776 247.651,155.572 248.446 C 154.866 251.193,155.075 252.800,156.138 252.800 C 157.605 252.800,158.753 251.017,159.358 247.800 C 159.483 247.140,159.851 245.372,160.177 243.871 C 160.648 241.705,160.670 240.979,160.285 240.353 C 159.875 239.687,159.932 239.458,160.649 238.882 C 161.136 238.491,161.600 237.531,161.735 236.635 C 162.019 234.753,162.322 234.410,164.063 233.998 C 167.058 233.290,167.336 233.411,167.060 235.300 M284.800 238.643 C 284.800 239.431,284.955 239.626,285.435 239.442 C 291.092 237.271,294.115 241.314,292.234 248.535 C 290.801 254.037,288.511 256.122,283.934 256.094 L 281.222 256.077 280.980 257.538 C 280.847 258.342,280.572 259.522,280.369 260.160 C 280.166 260.798,280.000 261.729,280.000 262.229 C 280.000 263.225,278.569 263.891,276.000 264.091 C 274.393 264.216,274.418 264.374,275.356 260.000 C 276.217 255.986,276.205 255.030,275.300 255.403 C 273.933 255.967,271.894 256.335,271.251 256.133 C 269.633 255.623,268.843 255.027,268.623 254.149 C 268.313 252.914,267.978 252.950,265.856 254.446 C 261.958 257.193,257.272 256.732,255.382 253.414 C 254.993 252.733,254.827 252.785,253.051 254.140 C 251.999 254.943,250.657 255.701,250.069 255.824 C 249.481 255.947,248.640 256.122,248.200 256.213 C 239.174 258.070,240.390 241.110,249.447 238.830 C 256.110 237.152,256.896 245.927,250.303 248.387 C 247.145 249.565,247.200 249.519,247.200 250.977 C 247.200 253.437,250.130 253.910,253.035 251.920 C 254.560 250.875,254.906 250.245,255.603 247.239 C 257.509 239.029,267.924 234.695,267.987 242.086 C 268.011 244.836,265.350 245.245,265.125 242.526 C 264.744 237.911,261.087 243.249,260.538 249.220 C 259.889 256.286,267.756 253.903,269.186 246.600 C 269.445 245.280,269.824 243.549,270.028 242.754 C 270.233 241.958,270.400 240.929,270.400 240.468 C 270.400 239.456,271.501 238.800,273.200 238.800 C 275.239 238.800,276.016 239.411,275.621 240.702 C 275.437 241.306,275.072 242.880,274.811 244.200 C 274.549 245.520,274.156 247.331,273.937 248.225 C 273.323 250.727,273.621 252.574,274.662 252.723 C 275.745 252.877,277.390 250.783,277.744 248.800 C 277.881 248.030,278.176 246.590,278.398 245.600 C 278.620 244.610,278.967 242.900,279.168 241.800 C 279.891 237.850,280.095 237.600,282.590 237.600 C 284.705 237.600,284.800 237.645,284.800 238.643 M316.852 242.827 C 317.280 250.664,317.484 251.317,319.137 250.159 C 321.822 248.278,320.459 250.821,317.561 253.098 C 312.854 256.796,308.767 257.272,306.354 254.404 L 305.309 253.160 304.154 254.090 C 299.061 258.193,292.806 256.286,292.801 250.628 C 292.796 243.358,298.887 236.921,303.822 238.983 C 308.177 240.803,305.202 247.745,299.544 248.965 C 297.761 249.350,297.676 252.087,299.422 252.883 C 302.610 254.335,307.233 249.947,309.832 243.000 C 309.996 242.560,310.428 241.390,310.790 240.400 C 311.386 238.770,311.598 238.576,313.024 238.349 C 316.691 237.763,316.568 237.620,316.852 242.827 M95.549 238.842 C 99.739 240.303,97.503 246.829,92.159 248.734 C 88.645 249.987,89.412 253.554,93.087 253.050 C 96.318 252.607,97.978 250.729,98.786 246.600 C 99.045 245.280,99.424 243.549,99.628 242.754 C 99.833 241.958,100.000 240.929,100.000 240.468 C 100.000 239.239,101.391 238.660,103.559 238.987 C 104.571 239.140,105.940 239.222,106.600 239.170 C 112.663 238.690,113.827 240.495,112.037 247.600 C 111.101 251.315,111.046 252.366,111.775 252.646 C 113.389 253.265,115.200 250.844,115.200 248.069 C 115.200 244.423,118.877 239.689,122.328 238.892 C 130.233 237.068,129.547 246.695,121.608 249.011 C 118.624 249.881,120.097 253.507,123.261 253.082 C 127.335 252.536,128.317 250.774,130.254 240.534 C 130.503 239.218,131.204 238.816,133.267 238.805 C 134.768 238.798,135.600 239.184,135.600 239.889 C 135.600 240.415,135.726 240.409,136.586 239.846 C 138.824 238.379,141.558 239.321,141.587 241.569 C 141.618 243.892,139.039 244.786,137.682 242.922 C 136.721 241.604,134.987 242.379,134.584 244.305 C 134.458 244.907,134.200 246.120,134.010 247.000 C 133.820 247.880,133.450 249.680,133.187 251.000 C 132.166 256.119,132.252 256.000,129.569 256.000 C 127.203 256.000,127.200 255.998,127.200 254.800 C 127.200 254.140,127.020 253.600,126.800 253.600 C 126.580 253.600,126.400 253.752,126.400 253.937 C 126.400 254.433,123.219 255.906,121.600 256.160 C 119.705 256.458,117.322 255.854,116.190 254.791 L 115.258 253.915 113.831 255.004 C 112.700 255.866,111.971 256.092,110.321 256.092 C 106.394 256.092,105.711 253.899,107.363 246.609 C 108.439 241.867,106.053 240.183,104.517 244.600 C 104.127 245.719,103.921 246.598,102.755 252.100 C 101.929 255.996,101.926 256.000,99.177 256.000 L 96.736 256.000 97.000 254.800 C 97.325 253.319,97.305 253.319,94.862 254.838 C 92.557 256.270,88.919 256.627,87.013 255.607 C 81.976 252.911,85.619 240.683,92.000 238.870 C 93.887 238.334,94.086 238.332,95.549 238.842 M92.729 241.500 C 91.332 243.143,89.973 247.200,90.819 247.200 C 91.903 247.200,93.985 245.142,94.441 243.620 C 95.184 241.142,94.136 239.845,92.729 241.500 M122.793 241.900 C 121.068 244.093,120.228 247.200,121.360 247.200 C 122.350 247.200,124.696 244.487,124.901 243.106 C 125.272 240.601,124.267 240.026,122.793 241.900 M185.194 241.313 C 182.774 243.260,180.637 251.103,182.178 252.382 C 184.382 254.211,187.555 248.942,186.580 245.071 C 186.407 244.385,186.497 243.567,186.808 242.985 C 187.616 241.476,186.469 240.287,185.194 241.313 M249.674 241.900 C 248.608 243.403,247.585 246.516,248.013 246.959 C 248.506 247.471,250.288 246.203,251.218 244.678 C 252.953 241.832,251.534 239.278,249.674 241.900 M300.982 241.687 C 299.226 243.737,298.167 247.200,299.297 247.200 C 300.102 247.200,301.785 245.576,302.586 244.028 C 303.848 241.587,302.613 239.783,300.982 241.687 M148.952 241.774 C 146.757 243.323,145.207 251.460,146.900 252.547 C 148.372 253.491,149.939 251.322,150.840 247.090 C 151.930 241.974,151.277 240.134,148.952 241.774 M284.696 242.300 C 283.476 243.660,281.882 252.764,282.849 252.847 C 285.199 253.050,286.559 251.397,287.560 247.123 C 288.380 243.625,287.851 241.600,286.118 241.600 C 285.681 241.600,285.041 241.915,284.696 242.300 M212.854 246.198 C 212.239 247.620,211.998 248.738,212.165 249.401 C 212.360 250.179,212.181 250.641,211.410 251.356 C 209.745 252.899,211.022 254.126,213.148 253.027 C 214.722 252.213,214.889 251.567,214.571 247.508 C 214.250 243.401,214.111 243.295,212.854 246.198 M310.335 246.121 C 309.638 247.553,309.377 248.642,309.496 249.620 C 309.648 250.868,309.531 251.103,308.536 251.556 L 307.403 252.073 308.323 252.818 C 309.294 253.605,311.017 253.326,311.686 252.275 C 312.095 251.631,312.084 244.499,311.673 244.245 C 311.493 244.134,310.891 244.978,310.335 246.121 M128.564 273.231 C 130.433 275.451,129.612 278.435,126.814 279.594 C 123.091 281.136,119.779 275.930,122.655 273.055 C 124.257 271.452,127.140 271.538,128.564 273.231 M119.921 277.240 C 120.098 278.764,121.967 280.759,123.800 281.381 L 125.400 281.924 125.517 285.662 C 125.701 291.533,124.756 293.311,121.187 293.802 L 119.183 294.077 119.991 295.386 C 121.085 297.155,121.198 303.200,120.138 303.200 C 119.137 303.200,116.800 305.141,116.800 305.971 C 116.800 308.286,109.876 308.298,107.989 305.986 C 106.962 304.729,106.855 304.688,106.219 305.324 C 105.549 305.994,105.229 306.050,101.448 306.161 C 99.591 306.216,99.448 306.143,98.512 304.661 C 97.972 303.805,97.005 302.906,96.365 302.664 C 94.988 302.145,94.579 296.974,95.787 295.376 C 96.594 294.310,96.544 293.600,95.662 293.600 C 94.109 293.600,93.409 292.128,93.259 288.549 C 93.110 285.001,93.455 284.000,94.829 284.000 C 95.659 284.000,97.600 281.663,97.600 280.662 C 97.600 279.580,104.725 279.698,105.908 280.800 C 106.980 281.799,107.200 281.802,107.200 280.819 C 107.200 277.217,109.265 275.966,115.000 276.093 L 119.800 276.200 119.921 277.240 M95.074 277.670 C 97.772 280.204,94.328 284.306,91.289 282.177 C 90.182 281.402,90.048 278.652,91.062 277.531 C 91.964 276.535,93.939 276.603,95.074 277.670 M200.720 284.480 C 200.984 284.744,201.200 285.284,201.200 285.680 C 201.200 286.273,201.538 286.400,203.120 286.400 C 205.441 286.400,206.000 286.884,206.000 288.893 C 206.000 291.948,203.138 296.023,201.578 295.188 C 200.504 294.614,200.600 294.044,202.016 292.584 C 204.154 290.378,203.866 289.042,201.200 288.800 L 199.000 288.600 198.875 286.854 C 198.683 284.178,199.442 283.202,200.720 284.480 M140.712 291.968 C 140.828 297.543,140.648 298.260,139.240 297.813 C 138.455 297.563,138.400 297.264,138.400 293.220 C 138.400 289.230,138.338 288.877,137.600 288.684 C 136.820 288.480,136.504 287.229,137.085 286.648 C 137.243 286.491,138.098 286.416,138.985 286.481 L 140.600 286.600 140.712 291.968 M149.114 290.900 L 149.227 295.200 148.014 295.200 L 146.800 295.200 146.800 292.249 C 146.800 290.114,146.634 289.160,146.200 288.800 C 144.793 287.632,145.582 286.312,147.586 286.481 L 149.000 286.600 149.114 290.900 M159.985 287.386 C 160.688 288.023,160.800 288.610,160.800 291.662 L 160.800 295.200 157.172 295.200 C 153.639 295.200,153.548 295.177,153.672 294.300 C 153.785 293.503,154.063 293.386,156.100 293.280 L 158.400 293.160 158.400 290.980 C 158.400 288.814,158.392 288.800,157.174 288.800 C 155.502 288.800,154.400 288.140,154.400 287.138 C 154.400 286.021,158.687 286.212,159.985 287.386 M172.266 286.825 C 173.860 287.431,173.987 287.792,173.994 291.727 L 174.000 295.253 172.900 295.127 C 171.830 295.003,171.795 294.919,171.600 292.000 L 171.400 289.000 170.200 289.000 L 169.000 289.000 169.000 292.000 L 169.000 295.000 166.900 295.121 C 164.665 295.250,163.719 293.997,165.600 293.400 C 166.471 293.124,166.848 288.400,166.000 288.400 C 165.780 288.400,165.600 287.950,165.600 287.400 C 165.600 286.274,169.853 285.908,172.266 286.825 M180.800 286.800 C 180.800 287.020,181.149 287.200,181.576 287.200 C 182.003 287.200,182.464 287.020,182.600 286.800 C 183.075 286.032,185.212 286.376,186.218 287.382 C 187.108 288.272,187.200 288.685,187.200 291.802 L 187.200 295.240 184.932 295.120 C 182.305 294.981,181.656 294.211,183.560 293.493 C 185.034 292.936,185.489 289.150,184.144 288.634 C 183.140 288.249,181.600 289.458,181.600 290.632 C 181.600 293.373,180.761 295.200,179.503 295.200 C 178.347 295.200,178.312 295.149,178.620 293.900 C 178.797 293.185,178.962 291.429,178.987 289.997 C 179.012 288.565,179.171 287.170,179.340 286.897 C 179.707 286.304,180.800 286.231,180.800 286.800 M215.535 286.837 C 217.094 287.381,217.711 289.165,217.528 292.600 L 217.400 295.000 213.836 295.116 C 208.716 295.284,207.754 293.646,212.713 293.203 C 215.233 292.978,215.485 292.646,215.019 290.160 C 214.791 288.943,214.626 288.800,213.458 288.800 C 211.823 288.800,210.581 287.947,210.922 287.058 C 211.222 286.278,213.605 286.165,215.535 286.837 M227.171 286.985 C 228.571 287.709,228.800 288.283,228.800 291.070 C 228.800 292.956,228.919 293.306,229.619 293.489 C 230.102 293.615,230.388 293.970,230.315 294.352 C 230.084 295.558,221.499 295.520,221.670 294.314 C 221.786 293.499,222.051 293.387,224.120 293.279 L 226.440 293.159 226.320 291.085 C 226.201 289.020,226.193 289.009,224.680 288.765 C 222.905 288.478,222.197 287.905,222.534 287.027 C 222.847 286.212,225.628 286.187,227.171 286.985 M248.266 286.825 C 249.860 287.431,249.987 287.792,249.994 291.727 L 250.000 295.253 248.900 295.127 C 247.830 295.003,247.795 294.919,247.600 292.000 L 247.400 289.000 246.200 289.000 L 245.000 289.000 245.000 292.000 L 245.000 295.000 242.900 295.121 C 240.665 295.250,239.719 293.997,241.600 293.400 C 242.471 293.124,242.848 288.400,242.000 288.400 C 241.780 288.400,241.600 287.950,241.600 287.400 C 241.600 286.274,245.853 285.908,248.266 286.825 M258.314 290.900 L 258.427 295.200 257.214 295.200 L 256.000 295.200 256.000 292.164 C 256.000 289.512,255.888 289.038,255.113 288.410 C 253.843 287.382,254.760 286.312,256.766 286.480 L 258.200 286.600 258.314 290.900 M270.438 287.046 C 270.896 287.598,270.848 287.794,270.106 288.395 C 269.381 288.982,269.217 289.588,269.119 292.049 C 269.003 294.925,268.973 295.003,267.917 295.125 L 266.835 295.250 266.717 292.142 L 266.600 289.034 265.017 288.706 C 263.338 288.358,262.743 287.814,263.080 286.936 C 263.402 286.097,269.729 286.191,270.438 287.046 M281.995 286.997 C 284.168 288.121,284.344 295.000,282.200 295.000 L 281.000 295.000 280.883 291.876 L 280.765 288.752 279.483 288.876 L 278.200 289.000 278.000 292.000 C 277.805 294.919,277.770 295.003,276.700 295.127 L 275.600 295.253 275.600 291.907 C 275.600 289.947,275.412 288.372,275.147 288.107 C 273.555 286.515,279.270 285.589,281.995 286.997 M291.254 288.369 C 291.994 289.341,292.810 290.206,293.066 290.291 C 293.742 290.513,294.151 288.864,293.588 288.186 C 292.902 287.359,293.413 286.400,294.538 286.400 C 296.516 286.400,296.920 289.024,295.318 291.469 C 294.751 292.334,294.754 292.486,295.347 293.142 C 296.198 294.082,296.178 295.046,295.300 295.383 C 294.784 295.581,294.127 295.117,292.800 293.618 C 290.605 291.137,290.400 291.119,290.400 293.400 C 290.400 295.133,290.356 295.200,289.200 295.200 C 287.956 295.200,287.277 291.294,288.400 290.600 C 288.946 290.263,288.905 288.665,288.337 288.097 C 287.986 287.746,288.002 287.480,288.400 287.000 C 289.155 286.091,289.731 286.367,291.254 288.369 M101.855 289.055 C 99.840 291.069,100.289 292.509,104.119 296.319 L 107.438 299.621 110.719 296.259 C 114.443 292.443,114.780 291.389,112.964 289.231 C 111.816 287.866,110.642 287.675,109.279 288.630 L 108.379 289.260 109.590 290.390 C 111.798 292.453,110.596 295.600,107.600 295.600 C 104.667 295.600,103.503 292.432,105.612 290.187 C 107.414 288.269,103.746 287.163,101.855 289.055 M96.711 304.223 C 98.645 305.577,97.431 308.800,94.987 308.800 C 93.387 308.800,92.640 307.946,92.640 306.116 C 92.640 303.847,94.764 302.859,96.711 304.223 M122.927 305.540 C 123.945 306.702,124.026 307.746,123.202 309.101 C 121.679 311.606,118.000 310.544,118.000 307.600 C 118.000 304.924,121.211 303.582,122.927 305.540 " stroke="none" fill="#ffffff" fill-rule="evenodd"></path><path id="path1" d="M150.200 105.200 C 149.760 105.389,148.929 105.556,148.353 105.572 C 146.926 105.610,142.374 107.412,139.339 109.140 C 124.442 117.620,118.960 141.787,127.640 160.709 C 130.392 166.706,136.809 174.597,142.900 179.473 L 145.600 181.634 145.600 183.871 C 145.600 185.101,145.433 186.758,145.228 187.554 C 145.024 188.349,144.637 190.080,144.369 191.400 C 143.794 194.229,142.727 198.388,141.600 202.200 C 141.405 202.860,141.065 204.030,140.845 204.800 C 140.625 205.570,140.238 206.920,139.985 207.800 C 139.454 209.648,139.046 212.000,139.256 212.000 C 139.336 212.000,140.660 211.725,142.200 211.388 C 143.740 211.052,145.990 210.585,147.200 210.351 C 148.410 210.117,150.210 209.763,151.200 209.565 C 169.966 205.799,186.986 205.950,203.300 210.025 C 204.125 210.231,205.475 210.569,206.300 210.776 C 207.125 210.983,210.096 211.883,212.903 212.776 C 218.121 214.437,219.263 214.690,218.580 214.036 C 218.154 213.628,213.352 211.185,211.200 210.281 C 210.430 209.958,208.985 209.330,207.989 208.886 C 206.123 208.055,200.721 206.152,198.600 205.579 C 192.210 203.853,190.764 203.482,189.200 203.165 C 175.800 200.449,165.144 200.212,151.800 202.334 C 148.892 202.796,148.656 202.619,149.174 200.364 C 149.396 199.394,149.781 197.508,150.028 196.174 L 150.478 193.748 152.739 193.292 C 166.079 190.606,182.669 190.248,192.700 192.430 C 196.409 193.237,198.270 193.669,199.800 194.079 C 201.995 194.666,205.988 195.962,207.200 196.480 C 207.750 196.715,208.560 197.042,209.000 197.206 C 209.440 197.371,211.738 198.454,214.107 199.613 C 219.073 202.043,219.960 202.050,216.247 199.631 C 208.891 194.838,197.482 190.266,188.400 188.471 C 187.190 188.232,185.030 187.803,183.600 187.518 C 180.085 186.818,159.027 186.847,154.646 187.559 C 150.727 188.195,150.984 188.621,150.668 180.954 C 150.394 174.333,150.059 171.737,148.325 162.800 C 147.746 159.815,146.464 155.156,145.989 154.305 C 145.775 153.923,145.600 153.338,145.600 153.005 C 145.600 152.672,145.401 152.400,145.157 152.400 C 144.891 152.400,144.831 152.680,145.006 153.100 C 145.847 155.124,146.851 173.600,146.119 173.600 C 144.670 173.600,137.520 164.222,135.027 159.052 C 133.889 156.694,133.672 156.000,132.562 151.200 C 131.434 146.315,131.809 135.798,133.245 132.081 C 133.440 131.576,133.602 130.856,133.605 130.481 C 133.612 129.528,136.514 123.945,138.089 121.856 C 143.031 115.300,155.236 111.810,165.109 114.130 C 170.760 115.458,178.146 118.747,181.941 121.626 C 184.664 123.691,184.944 123.402,182.824 120.718 C 175.494 111.440,156.597 102.451,150.200 105.200 M235.000 115.611 C 234.120 115.793,232.140 116.159,230.600 116.425 C 228.031 116.868,226.123 117.451,217.063 120.566 C 215.338 121.159,209.215 124.019,203.456 126.922 C 197.697 129.825,192.178 132.543,191.192 132.962 C 190.207 133.381,188.500 134.130,187.400 134.626 C 174.415 140.482,165.655 139.012,155.075 129.200 C 151.394 125.787,150.970 126.557,153.639 131.800 C 158.188 140.734,166.372 146.400,174.727 146.400 C 180.872 146.400,191.604 143.391,201.800 138.810 C 202.680 138.415,204.300 137.688,205.400 137.194 C 206.500 136.701,209.470 135.321,212.000 134.126 C 214.530 132.932,216.960 131.809,217.400 131.631 C 217.840 131.453,218.695 131.103,219.300 130.854 C 223.329 129.192,222.952 129.314,229.400 127.610 C 244.850 123.527,257.709 125.329,265.013 132.600 C 271.802 139.358,274.391 154.572,270.594 165.400 C 267.175 175.150,257.366 183.773,245.800 187.196 C 244.260 187.651,242.447 188.199,241.772 188.412 C 241.096 188.625,240.432 188.800,240.296 188.800 C 240.160 188.800,240.077 186.325,240.111 183.300 C 240.278 168.616,233.594 165.518,208.800 168.792 C 204.778 169.323,200.575 169.925,196.235 170.591 C 189.744 171.588,179.898 171.148,174.300 169.612 C 173.475 169.385,172.215 169.041,171.500 168.846 C 168.472 168.022,163.198 165.681,159.452 163.499 C 157.293 162.242,156.482 162.320,158.141 163.625 C 158.726 164.085,159.428 164.683,159.702 164.953 C 163.076 168.282,174.326 173.512,180.800 174.762 C 182.010 174.995,183.954 175.370,185.120 175.593 C 187.769 176.102,201.245 176.103,205.000 175.595 C 209.751 174.953,227.173 174.633,229.063 175.153 C 235.033 176.796,237.030 193.975,233.776 215.700 C 233.578 217.019,233.630 217.600,233.946 217.600 C 234.196 217.600,234.400 217.237,234.400 216.793 C 234.400 216.349,234.732 214.684,235.137 213.093 C 235.542 211.502,236.091 209.210,236.356 208.000 C 236.622 206.790,236.998 205.080,237.193 204.200 C 237.387 203.320,237.757 201.430,238.015 200.000 C 238.272 198.570,238.554 197.123,238.642 196.784 C 238.754 196.348,239.766 196.019,242.100 195.660 C 245.967 195.065,251.528 193.627,253.800 192.635 C 274.189 183.727,282.950 170.275,281.826 149.598 C 281.395 141.672,278.388 131.997,275.289 128.564 C 274.909 128.144,274.091 127.185,273.470 126.434 C 270.257 122.548,262.706 117.982,257.400 116.716 C 252.465 115.539,238.639 114.857,235.000 115.611 M326.063 229.521 C 325.296 238.669,325.325 238.869,327.835 241.676 C 329.508 243.547,329.782 245.068,329.436 250.568 C 328.307 268.516,328.325 268.800,330.600 268.800 C 332.519 268.800,332.876 267.698,332.431 263.148 C 332.208 260.867,331.975 255.572,331.913 251.382 C 331.791 243.150,331.658 243.782,334.179 240.604 L 335.357 239.118 335.252 233.059 C 335.057 221.793,333.854 220.592,333.691 231.500 C 333.625 235.913,333.427 238.800,333.191 238.800 C 332.952 238.800,332.800 236.173,332.800 232.033 C 332.800 224.975,332.675 224.000,331.766 224.000 C 331.326 224.000,331.197 225.438,331.109 231.300 C 330.965 240.965,330.268 241.048,330.000 231.433 C 329.717 221.285,328.863 221.045,328.709 231.070 C 328.617 237.092,328.507 238.200,328.000 238.200 C 327.493 238.200,327.383 237.096,327.291 231.100 C 327.160 222.590,326.693 221.991,326.063 229.521 M343.132 224.870 C 338.768 227.400,338.784 235.299,343.164 241.400 L 344.600 243.400 344.558 249.000 C 344.536 252.080,344.355 257.377,344.157 260.771 C 343.709 268.439,344.467 270.294,347.158 268.115 C 348.048 267.394,348.049 267.374,347.625 261.003 C 346.910 250.259,347.042 243.067,347.970 242.227 C 349.016 241.280,350.700 237.753,351.413 235.013 C 353.296 227.787,348.414 221.807,343.132 224.870 M73.745 231.243 C 64.183 235.884,63.440 252.211,72.793 252.179 C 74.262 252.174,75.372 251.924,76.112 251.431 C 77.497 250.511,77.791 250.772,77.286 252.473 C 77.069 253.203,76.660 254.880,76.376 256.200 C 75.551 260.039,73.879 261.806,72.015 260.808 C 70.120 259.794,71.294 256.624,73.480 256.853 C 74.992 257.012,75.571 256.579,75.293 255.500 C 74.618 252.880,70.440 253.047,68.659 255.765 C 65.756 260.197,71.334 264.985,76.393 262.404 C 79.526 260.805,80.565 258.565,82.793 248.600 C 82.990 247.720,83.342 246.155,83.575 245.123 C 84.333 241.774,84.259 241.600,82.080 241.600 C 80.220 241.600,80.145 241.646,79.647 243.100 C 78.166 247.428,76.336 249.447,74.270 249.034 C 69.569 248.094,71.549 236.058,76.946 232.767 C 80.105 230.841,82.547 232.778,80.963 235.953 C 79.833 238.220,82.126 239.395,83.930 237.474 C 88.055 233.084,80.047 228.185,73.745 231.243 M230.048 231.189 C 224.234 233.168,220.135 239.174,222.823 241.777 C 224.456 243.357,225.388 242.761,225.601 240.000 C 225.936 235.670,228.123 233.260,232.450 232.454 C 237.803 231.456,239.960 236.134,235.981 240.113 C 233.505 242.589,233.215 241.878,234.393 236.222 C 234.923 233.680,234.625 233.414,231.886 233.982 C 230.139 234.345,229.645 234.620,229.487 235.319 C 229.378 235.804,228.889 238.090,228.401 240.400 C 227.913 242.710,227.353 245.320,227.156 246.200 C 226.959 247.080,226.619 248.700,226.400 249.800 C 226.181 250.900,225.829 252.610,225.618 253.600 C 225.407 254.590,225.227 255.535,225.217 255.700 C 225.208 255.865,226.346 256.000,227.747 256.000 L 230.295 256.000 230.539 254.500 C 230.673 253.675,230.950 252.280,231.153 251.400 C 231.357 250.520,231.734 248.741,231.992 247.447 C 232.873 243.022,233.977 241.973,235.427 244.185 C 236.021 245.092,236.020 245.384,235.409 247.885 C 233.571 255.407,233.814 256.764,237.000 256.781 C 239.007 256.792,239.328 256.332,239.405 253.335 C 239.444 251.831,239.685 249.790,239.941 248.800 C 240.922 245.003,240.918 244.674,239.861 243.123 L 238.855 241.645 240.028 240.323 C 245.241 234.445,238.529 228.302,230.048 231.189 M171.623 232.572 C 170.790 233.576,170.981 235.656,171.982 236.466 C 174.544 238.541,177.672 235.594,175.777 232.889 C 175.045 231.843,172.396 231.641,171.623 232.572 M272.223 232.889 C 271.373 234.102,271.441 235.441,272.400 236.400 C 274.118 238.118,276.800 236.933,276.800 234.457 C 276.800 231.920,273.656 230.843,272.223 232.889 M164.063 233.998 C 162.322 234.410,162.019 234.753,161.735 236.635 C 161.600 237.531,161.136 238.491,160.649 238.882 C 159.932 239.458,159.875 239.687,160.285 240.353 C 160.670 240.979,160.648 241.705,160.177 243.871 C 159.851 245.372,159.483 247.140,159.358 247.800 C 158.753 251.017,157.605 252.800,156.138 252.800 C 155.075 252.800,154.866 251.193,155.572 248.446 C 155.776 247.651,156.157 245.920,156.418 244.600 C 156.679 243.280,157.069 241.603,157.286 240.873 C 157.502 240.143,157.581 239.447,157.460 239.326 C 157.015 238.882,153.674 238.719,152.978 239.108 C 152.500 239.376,151.879 239.377,151.118 239.111 C 146.126 237.371,140.797 243.286,140.801 250.560 C 140.805 255.805,144.681 257.921,148.743 254.895 L 150.085 253.894 150.943 254.923 C 152.244 256.486,155.122 256.520,157.362 255.000 C 159.062 253.846,159.200 253.811,159.200 254.532 C 159.200 256.325,163.759 256.631,166.163 254.999 L 167.637 253.999 168.564 255.077 C 169.865 256.589,172.972 256.574,174.975 255.046 C 176.647 253.771,176.555 253.772,178.164 255.000 C 181.856 257.816,187.608 255.314,189.202 250.200 C 190.557 245.854,190.585 245.805,191.769 245.668 C 192.795 245.550,192.883 245.630,192.642 246.468 C 192.494 246.981,192.200 248.300,191.988 249.400 C 191.776 250.500,191.429 252.210,191.218 253.200 C 190.594 256.131,190.533 256.051,193.295 255.919 L 195.789 255.800 196.051 254.400 C 196.194 253.630,196.529 252.010,196.795 250.800 C 197.061 249.590,197.438 247.825,197.632 246.877 C 198.261 243.803,199.166 242.341,200.356 242.479 C 201.653 242.629,201.733 244.474,200.653 249.328 C 199.660 253.783,200.198 255.151,203.343 256.168 C 204.309 256.480,206.992 255.751,207.781 254.962 C 208.338 254.405,208.519 254.430,209.617 255.212 C 212.512 257.274,217.170 256.005,221.611 251.944 C 223.367 250.340,223.487 249.058,221.777 250.178 C 221.255 250.520,220.680 250.800,220.500 250.800 C 220.186 250.800,219.199 242.049,219.200 239.271 L 219.200 237.942 216.900 238.221 C 214.114 238.557,213.878 238.728,213.191 240.894 C 212.281 243.765,210.432 247.605,209.221 249.141 C 208.588 249.944,208.009 250.941,207.935 251.357 C 207.758 252.347,206.692 252.998,205.803 252.657 C 205.046 252.366,205.201 248.293,206.029 246.746 C 206.745 245.409,206.480 240.596,205.650 239.845 C 204.560 238.859,202.293 238.595,200.896 239.292 C 199.906 239.786,199.606 239.793,198.984 239.339 C 196.836 237.768,193.600 239.143,193.600 241.627 C 193.600 244.333,190.813 244.806,190.052 242.230 C 187.772 234.508,178.487 239.102,176.640 248.866 C 176.070 251.884,175.299 252.930,173.803 252.715 C 172.812 252.573,172.579 251.274,173.145 249.041 C 173.374 248.139,173.767 246.410,174.019 245.200 C 174.272 243.990,174.669 242.218,174.902 241.262 C 175.407 239.188,175.051 238.815,172.549 238.806 C 170.555 238.799,169.991 239.381,169.540 241.916 C 169.356 242.952,169.022 244.610,168.799 245.600 C 168.576 246.590,168.281 248.030,168.144 248.800 C 167.790 250.783,166.145 252.877,165.062 252.723 C 164.049 252.578,163.931 250.246,164.743 246.400 C 164.999 245.190,165.323 243.499,165.464 242.642 C 165.667 241.410,165.959 240.995,166.860 240.655 C 168.195 240.151,168.359 239.219,167.168 238.907 C 166.545 238.745,166.395 238.477,166.573 237.845 C 167.737 233.707,167.410 233.207,164.063 233.998 M279.957 238.700 C 279.725 239.305,279.369 240.700,279.168 241.800 C 278.967 242.900,278.620 244.610,278.398 245.600 C 278.176 246.590,277.881 248.030,277.744 248.800 C 277.390 250.783,275.745 252.877,274.662 252.723 C 273.621 252.574,273.323 250.727,273.937 248.225 C 274.156 247.331,274.549 245.520,274.811 244.200 C 275.072 242.880,275.437 241.306,275.621 240.702 C 276.016 239.411,275.239 238.800,273.200 238.800 C 271.501 238.800,270.400 239.456,270.400 240.468 C 270.400 240.929,270.233 241.958,270.028 242.754 C 269.824 243.549,269.445 245.280,269.186 246.600 C 268.378 250.729,266.718 252.607,263.487 253.050 C 260.853 253.411,260.228 252.599,260.538 249.220 C 261.087 243.249,264.744 237.911,265.125 242.526 C 265.350 245.245,268.011 244.836,267.987 242.086 C 267.924 234.695,257.509 239.029,255.603 247.239 C 254.906 250.245,254.560 250.875,253.035 251.920 C 250.130 253.910,247.200 253.437,247.200 250.977 C 247.200 249.519,247.145 249.565,250.303 248.387 C 256.896 245.927,256.110 237.152,249.447 238.830 C 240.390 241.110,239.174 258.070,248.200 256.213 C 248.640 256.122,249.481 255.947,250.069 255.824 C 250.657 255.701,251.999 254.943,253.051 254.140 C 254.827 252.785,254.993 252.733,255.382 253.414 C 257.272 256.732,261.958 257.193,265.856 254.446 C 267.978 252.950,268.313 252.914,268.623 254.149 C 268.843 255.027,269.633 255.623,271.251 256.133 C 271.894 256.335,273.933 255.967,275.300 255.403 C 276.205 255.030,276.217 255.986,275.356 260.000 C 274.418 264.374,274.393 264.216,276.000 264.091 C 278.569 263.891,280.000 263.225,280.000 262.229 C 280.000 261.729,280.166 260.798,280.369 260.160 C 280.572 259.522,280.847 258.342,280.980 257.538 L 281.222 256.077 283.934 256.094 C 288.511 256.122,290.801 254.037,292.234 248.535 C 294.115 241.314,291.092 237.271,285.435 239.442 C 284.955 239.626,284.800 239.431,284.800 238.643 C 284.800 236.995,280.594 237.045,279.957 238.700 M313.024 238.349 C 311.598 238.576,311.386 238.770,310.790 240.400 C 310.428 241.390,309.996 242.560,309.832 243.000 C 307.233 249.947,302.610 254.335,299.422 252.883 C 297.676 252.087,297.761 249.350,299.544 248.965 C 305.202 247.745,308.177 240.803,303.822 238.983 C 298.887 236.921,292.796 243.358,292.801 250.628 C 292.806 256.286,299.061 258.193,304.154 254.090 L 305.309 253.160 306.354 254.404 C 308.767 257.272,312.854 256.796,317.561 253.098 C 320.459 250.821,321.822 248.278,319.137 250.159 C 317.484 251.317,317.280 250.664,316.852 242.827 C 316.568 237.620,316.691 237.763,313.024 238.349 M92.000 238.870 C 85.619 240.683,81.976 252.911,87.013 255.607 C 88.919 256.627,92.557 256.270,94.862 254.838 C 97.305 253.319,97.325 253.319,97.000 254.800 L 96.736 256.000 99.177 256.000 C 101.926 256.000,101.929 255.996,102.755 252.100 C 103.921 246.598,104.127 245.719,104.517 244.600 C 106.053 240.183,108.439 241.867,107.363 246.609 C 105.711 253.899,106.394 256.092,110.321 256.092 C 111.971 256.092,112.700 255.866,113.831 255.004 L 115.258 253.915 116.190 254.791 C 117.322 255.854,119.705 256.458,121.600 256.160 C 123.219 255.906,126.400 254.433,126.400 253.937 C 126.400 253.752,126.580 253.600,126.800 253.600 C 127.020 253.600,127.200 254.140,127.200 254.800 C 127.200 255.998,127.203 256.000,129.569 256.000 C 132.252 256.000,132.166 256.119,133.187 251.000 C 133.450 249.680,133.820 247.880,134.010 247.000 C 134.200 246.120,134.458 244.907,134.584 244.305 C 134.987 242.379,136.721 241.604,137.682 242.922 C 139.039 244.786,141.618 243.892,141.587 241.569 C 141.558 239.321,138.824 238.379,136.586 239.846 C 135.726 240.409,135.600 240.415,135.600 239.889 C 135.600 239.184,134.768 238.798,133.267 238.805 C 131.204 238.816,130.503 239.218,130.254 240.534 C 128.317 250.774,127.335 252.536,123.261 253.082 C 120.097 253.507,118.624 249.881,121.608 249.011 C 129.547 246.695,130.233 237.068,122.328 238.892 C 118.877 239.689,115.200 244.423,115.200 248.069 C 115.200 250.844,113.389 253.265,111.775 252.646 C 111.046 252.366,111.101 251.315,112.037 247.600 C 113.827 240.495,112.663 238.690,106.600 239.170 C 105.940 239.222,104.571 239.140,103.559 238.987 C 101.391 238.660,100.000 239.239,100.000 240.468 C 100.000 240.929,99.833 241.958,99.628 242.754 C 99.424 243.549,99.045 245.280,98.786 246.600 C 97.978 250.729,96.318 252.607,93.087 253.050 C 89.412 253.554,88.645 249.987,92.159 248.734 C 95.442 247.564,97.600 244.970,97.600 242.194 C 97.600 239.092,95.534 237.866,92.000 238.870 M94.667 241.430 C 95.110 242.584,94.027 245.139,92.649 246.189 C 90.881 247.538,90.236 247.510,90.587 246.100 C 91.543 242.267,93.937 239.527,94.667 241.430 M124.904 241.300 C 125.349 242.471,124.640 244.480,123.314 245.806 C 121.042 248.078,120.100 247.374,121.364 244.349 C 122.510 241.605,124.402 239.977,124.904 241.300 M186.811 241.414 C 187.224 241.911,187.223 242.209,186.808 242.985 C 186.497 243.567,186.407 244.385,186.580 245.071 C 187.555 248.942,184.382 254.211,182.178 252.382 C 180.637 251.103,182.774 243.260,185.194 241.313 C 185.993 240.670,186.205 240.684,186.811 241.414 M251.999 242.100 C 251.997 243.660,250.827 245.702,249.399 246.638 C 247.942 247.592,247.548 246.946,248.280 244.800 C 249.563 241.038,252.002 239.267,251.999 242.100 M303.124 241.877 C 303.363 243.547,300.736 247.200,299.297 247.200 C 298.840 247.200,298.771 246.881,298.983 245.751 C 299.652 242.185,302.753 239.284,303.124 241.877 M151.366 243.090 C 151.290 246.911,149.749 251.671,148.300 252.564 C 146.096 253.923,145.403 249.026,147.181 244.648 C 148.725 240.843,151.431 239.836,151.366 243.090 M287.443 242.300 C 289.132 244.525,286.533 252.459,284.000 252.811 C 282.083 253.078,282.016 252.316,283.407 246.000 C 284.114 242.790,284.848 241.600,286.118 241.600 C 286.555 241.600,287.151 241.915,287.443 242.300 M214.571 247.508 C 214.889 251.567,214.722 252.213,213.148 253.027 C 211.022 254.126,209.745 252.899,211.410 251.356 C 212.181 250.641,212.360 250.179,212.165 249.401 C 211.920 248.426,213.458 244.023,214.048 244.007 C 214.185 244.003,214.420 245.579,214.571 247.508 M311.994 248.124 C 311.987 252.192,311.861 252.568,310.314 253.157 C 309.454 253.484,309.063 253.417,308.323 252.818 L 307.403 252.073 308.536 251.556 C 309.531 251.103,309.648 250.868,309.496 249.620 C 309.313 248.117,311.040 243.854,311.673 244.245 C 311.853 244.356,311.997 246.102,311.994 248.124 M122.655 273.055 C 119.779 275.930,123.091 281.136,126.814 279.594 C 131.105 277.817,130.190 272.000,125.619 272.000 C 124.089 272.000,123.499 272.210,122.655 273.055 M109.191 276.893 C 108.073 277.897,107.200 279.620,107.200 280.819 C 107.200 281.802,106.980 281.799,105.908 280.800 C 104.725 279.698,97.600 279.580,97.600 280.662 C 97.600 281.663,95.659 284.000,94.829 284.000 C 93.455 284.000,93.110 285.001,93.259 288.549 C 93.409 292.128,94.109 293.600,95.662 293.600 C 96.544 293.600,96.594 294.310,95.787 295.376 C 94.579 296.974,94.988 302.145,96.365 302.664 C 97.005 302.906,97.972 303.805,98.512 304.661 C 99.448 306.143,99.591 306.216,101.448 306.161 C 105.229 306.050,105.549 305.994,106.219 305.324 C 106.855 304.688,106.962 304.729,107.989 305.986 C 109.876 308.298,116.800 308.286,116.800 305.971 C 116.800 305.141,119.137 303.200,120.138 303.200 C 121.198 303.200,121.085 297.155,119.991 295.386 L 119.183 294.077 121.187 293.802 C 124.756 293.311,125.701 291.533,125.517 285.662 L 125.400 281.924 123.800 281.381 C 121.967 280.759,120.098 278.764,119.921 277.240 L 119.800 276.200 115.000 276.093 C 110.497 275.993,110.138 276.042,109.191 276.893 M91.062 277.531 C 90.048 278.652,90.182 281.402,91.289 282.177 C 93.357 283.626,96.000 282.289,96.000 279.794 C 96.000 277.326,92.641 275.786,91.062 277.531 M198.962 284.554 C 198.845 284.859,198.806 285.894,198.875 286.854 L 199.000 288.600 201.200 288.800 C 203.866 289.042,204.154 290.378,202.016 292.584 C 200.600 294.044,200.504 294.614,201.578 295.188 C 203.138 296.023,206.000 291.948,206.000 288.893 C 206.000 286.884,205.441 286.400,203.120 286.400 C 201.538 286.400,201.200 286.273,201.200 285.680 C 201.200 284.278,199.413 283.379,198.962 284.554 M137.085 286.648 C 136.504 287.229,136.820 288.480,137.600 288.684 C 138.338 288.877,138.400 289.230,138.400 293.220 C 138.400 297.264,138.455 297.563,139.240 297.813 C 140.648 298.260,140.828 297.543,140.712 291.968 L 140.600 286.600 138.985 286.481 C 138.098 286.416,137.243 286.491,137.085 286.648 M145.886 286.648 C 145.402 287.132,145.569 288.276,146.200 288.800 C 146.634 289.160,146.800 290.114,146.800 292.249 L 146.800 295.200 148.014 295.200 L 149.227 295.200 149.114 290.900 L 149.000 286.600 147.586 286.481 C 146.808 286.415,146.043 286.490,145.886 286.648 M154.400 287.138 C 154.400 288.140,155.502 288.800,157.174 288.800 C 158.392 288.800,158.400 288.814,158.400 290.980 L 158.400 293.160 156.100 293.280 C 154.063 293.386,153.785 293.503,153.672 294.300 C 153.548 295.177,153.639 295.200,157.172 295.200 L 160.800 295.200 160.800 291.662 C 160.800 287.295,160.366 286.735,156.785 286.476 C 154.579 286.317,154.400 286.366,154.400 287.138 M165.600 287.400 C 165.600 287.950,165.780 288.400,166.000 288.400 C 166.848 288.400,166.471 293.124,165.600 293.400 C 163.719 293.997,164.665 295.250,166.900 295.121 L 169.000 295.000 169.000 292.000 L 169.000 289.000 170.200 289.000 L 171.400 289.000 171.600 292.000 C 171.795 294.919,171.830 295.003,172.900 295.127 L 174.000 295.253 173.994 291.727 C 173.985 286.868,173.491 286.400,168.374 286.400 C 165.682 286.400,165.600 286.429,165.600 287.400 M179.340 286.897 C 179.171 287.170,179.012 288.565,178.987 289.997 C 178.962 291.429,178.797 293.185,178.620 293.900 C 178.312 295.149,178.347 295.200,179.503 295.200 C 180.761 295.200,181.600 293.373,181.600 290.632 C 181.600 289.458,183.140 288.249,184.144 288.634 C 185.489 289.150,185.034 292.936,183.560 293.493 C 181.656 294.211,182.305 294.981,184.932 295.120 L 187.200 295.240 187.200 291.802 C 187.200 288.685,187.108 288.272,186.218 287.382 C 185.212 286.376,183.075 286.032,182.600 286.800 C 182.464 287.020,182.003 287.200,181.576 287.200 C 181.149 287.200,180.800 287.020,180.800 286.800 C 180.800 286.231,179.707 286.304,179.340 286.897 M210.922 287.058 C 210.581 287.947,211.823 288.800,213.458 288.800 C 214.626 288.800,214.791 288.943,215.019 290.160 C 215.485 292.646,215.233 292.978,212.713 293.203 C 207.754 293.646,208.716 295.284,213.836 295.116 L 217.400 295.000 217.528 292.600 C 217.711 289.165,217.094 287.381,215.535 286.837 C 213.605 286.165,211.222 286.278,210.922 287.058 M222.534 287.027 C 222.197 287.905,222.905 288.478,224.680 288.765 C 226.193 289.009,226.201 289.020,226.320 291.085 L 226.440 293.159 224.120 293.279 C 222.051 293.387,221.786 293.499,221.670 294.314 C 221.499 295.520,230.084 295.558,230.315 294.352 C 230.388 293.970,230.102 293.615,229.619 293.489 C 228.919 293.306,228.800 292.956,228.800 291.070 C 228.800 289.858,228.688 288.574,228.552 288.218 C 227.937 286.617,223.062 285.652,222.534 287.027 M241.600 287.400 C 241.600 287.950,241.780 288.400,242.000 288.400 C 242.848 288.400,242.471 293.124,241.600 293.400 C 239.719 293.997,240.665 295.250,242.900 295.121 L 245.000 295.000 245.000 292.000 L 245.000 289.000 246.200 289.000 L 247.400 289.000 247.600 292.000 C 247.795 294.919,247.830 295.003,248.900 295.127 L 250.000 295.253 249.994 291.727 C 249.985 286.868,249.491 286.400,244.374 286.400 C 241.682 286.400,241.600 286.429,241.600 287.400 M254.779 287.026 C 254.298 287.605,254.342 287.785,255.113 288.410 C 255.888 289.038,256.000 289.512,256.000 292.164 L 256.000 295.200 257.214 295.200 L 258.427 295.200 258.314 290.900 L 258.200 286.600 256.766 286.480 C 255.802 286.399,255.150 286.578,254.779 287.026 M263.080 286.936 C 262.743 287.814,263.338 288.358,265.017 288.706 L 266.600 289.034 266.717 292.142 L 266.835 295.250 267.917 295.125 C 268.973 295.003,269.003 294.925,269.119 292.049 C 269.217 289.588,269.381 288.982,270.106 288.395 C 270.848 287.794,270.896 287.598,270.438 287.046 C 269.729 286.191,263.402 286.097,263.080 286.936 M274.934 287.027 C 274.802 287.372,274.898 287.858,275.147 288.107 C 275.412 288.372,275.600 289.947,275.600 291.907 L 275.600 295.253 276.700 295.127 C 277.770 295.003,277.805 294.919,278.000 292.000 L 278.200 289.000 279.483 288.876 L 280.765 288.752 280.883 291.876 L 281.000 295.000 282.200 295.000 C 284.344 295.000,284.168 288.121,281.995 286.997 C 280.360 286.152,275.262 286.173,274.934 287.027 M288.400 287.000 C 288.002 287.480,287.986 287.746,288.337 288.097 C 288.905 288.665,288.946 290.263,288.400 290.600 C 287.277 291.294,287.956 295.200,289.200 295.200 C 290.356 295.200,290.400 295.133,290.400 293.400 C 290.400 291.119,290.605 291.137,292.800 293.618 C 294.127 295.117,294.784 295.581,295.300 295.383 C 296.178 295.046,296.198 294.082,295.347 293.142 C 294.754 292.486,294.751 292.334,295.318 291.469 C 296.920 289.024,296.516 286.400,294.538 286.400 C 293.413 286.400,292.902 287.359,293.588 288.186 C 294.151 288.864,293.742 290.513,293.066 290.291 C 292.810 290.206,291.994 289.341,291.254 288.369 C 289.731 286.367,289.155 286.091,288.400 287.000 M105.675 288.668 C 106.391 289.316,106.389 289.360,105.612 290.187 C 103.503 292.432,104.667 295.600,107.600 295.600 C 110.596 295.600,111.798 292.453,109.590 290.390 L 108.379 289.260 109.279 288.630 C 110.642 287.675,111.816 287.866,112.964 289.231 C 114.780 291.389,114.443 292.443,110.719 296.259 L 107.438 299.621 104.119 296.319 C 101.174 293.390,100.800 292.854,100.800 291.563 C 100.800 288.833,103.853 287.019,105.675 288.668 M93.396 304.153 C 92.501 304.808,92.366 307.195,93.169 308.163 C 93.889 309.031,96.118 308.975,96.938 308.069 C 99.073 305.710,95.965 302.275,93.396 304.153 M120.104 304.715 C 118.990 304.889,118.000 306.247,118.000 307.600 C 118.000 310.544,121.679 311.606,123.202 309.101 C 124.654 306.713,122.931 304.273,120.104 304.715 " stroke="none" fill="#1c3738" fill-rule="evenodd"></path></g></svg>